<?xml version="1.0" standalone="no"?>
<!DOCTYPE svg PUBLIC "-//W3C//DTD SVG 20010904//EN"
 "http://www.w3.org/TR/2001/REC-SVG-20010904/DTD/svg10.dtd">
<svg version="1.0" xmlns="http://www.w3.org/2000/svg"
 width="200.000000pt" height="200.000000pt" viewBox="0 0 200.000000 200.000000"
 preserveAspectRatio="xMidYMid meet">
<metadata>
Created by potrace 1.11, written by Peter Selinger 2001-2013
</metadata>
<g transform="translate(0.000000,200.000000) scale(0.100000,-0.100000)"
fill="#000000" stroke="none">
<path d="M77 1993 c-4 -3 -23 -6 -42 -5 -33 1 -35 0 -34 -31 1 -30 1 -31 9 -7
7 21 8 22 9 5 1 -11 12 -33 26 -50 l24 -30 1 29 c0 21 -4 27 -15 23 -8 -4 -17
-2 -20 2 -3 5 2 11 10 15 9 3 12 12 9 23 -5 17 -5 17 9 1 8 -10 17 -15 21 -11
4 4 4 0 1 -9 -9 -22 15 -35 27 -14 9 16 30 23 26 9 -1 -5 1 -18 6 -30 7 -21
17 -28 39 -24 4 0 7 -3 7 -8 0 -5 7 -11 15 -15 14 -5 13 -2 0 24 -9 17 -12 30
-8 30 5 0 1 4 -7 10 -9 6 -17 5 -22 -3 -5 -8 -8 -7 -8 5 0 9 -8 22 -17 28 -15
8 -12 9 12 5 16 -2 31 -9 33 -15 3 -7 13 -5 29 5 18 12 28 14 36 6 8 -8 6 -11
-7 -11 -9 0 -14 -4 -11 -10 3 -5 1 -10 -5 -10 -14 0 -9 -41 5 -41 5 0 11 5 13
13 2 9 0 8 -8 -2 -9 -13 -11 -12 -8 5 2 12 11 20 23 20 15 0 21 -8 25 -35 3
-24 11 -35 23 -36 21 -2 22 4 0 28 -15 17 -15 20 -3 29 8 5 21 7 28 4 19 -7
14 23 -5 34 -16 9 -15 11 7 11 23 1 23 2 5 10 -11 5 -14 9 -7 9 6 1 12 5 12 9
0 5 -48 10 -107 11 -59 1 -104 -1 -101 -5 13 -12 -16 -30 -41 -26 -23 5 -23 6
-6 18 10 8 14 14 9 14 -6 0 -14 -3 -17 -7z m223 -33 c0 -10 -6 -20 -14 -23
-11 -4 -14 1 -11 21 4 35 3 34 15 27 6 -3 10 -14 10 -25z"/>
<path d="M399 1968 c4 -32 5 -32 11 -8 7 26 4 40 -9 40 -4 0 -5 -15 -2 -32z"/>
<path d="M436 1985 c4 -8 1 -15 -5 -15 -6 0 -11 -9 -11 -20 0 -20 -11 -26 -24
-13 -11 11 -46 14 -46 3 0 -15 38 -32 68 -30 44 3 50 1 54 -17 3 -10 5 1 5 24
0 23 -4 41 -10 40 -21 -4 -17 24 5 32 22 9 21 10 -9 10 -25 1 -31 -3 -27 -14z"/>
<path d="M525 1980 c10 -11 19 -20 19 -20 1 0 2 9 2 20 0 13 -7 20 -20 20 -18
0 -19 -1 -1 -20z"/>
<path d="M582 1983 c4 -16 2 -20 -8 -16 -8 3 -14 1 -14 -5 0 -19 30 -21 40 -3
7 14 5 22 -7 32 -15 12 -16 11 -11 -8z"/>
<path d="M654 1993 c3 -6 -1 -16 -11 -21 -9 -6 -17 -19 -18 -30 -1 -16 4 -20
24 -18 14 2 27 8 29 14 2 6 -5 8 -17 5 -26 -7 -27 5 -3 23 14 11 15 15 3 26
-8 8 -11 8 -7 1z"/>
<path d="M820 1990 c-13 -8 -13 -10 2 -10 9 0 20 5 23 10 8 13 -5 13 -25 0z"/>
<path d="M860 1989 c0 -5 5 -7 10 -4 6 3 10 8 10 11 0 2 -4 4 -10 4 -5 0 -10
-5 -10 -11z"/>
<path d="M915 1990 c3 -5 8 -10 11 -10 2 0 4 5 4 10 0 6 -5 10 -11 10 -5 0 -7
-4 -4 -10z"/>
<path d="M1036 1985 c-3 -8 -1 -15 4 -15 6 0 10 4 10 10 0 5 7 6 17 3 11 -4
14 -3 9 5 -10 17 -33 15 -40 -3z"/>
<path d="M1095 1989 c-11 -17 1 -21 15 -4 8 9 8 15 2 15 -6 0 -14 -5 -17 -11z"/>
<path d="M1200 1991 c0 -6 5 -13 10 -16 6 -3 10 1 10 9 0 9 -4 16 -10 16 -5 0
-10 -4 -10 -9z"/>
<path d="M1235 1990 c-3 -5 1 -10 9 -10 8 0 18 5 21 10 3 6 -1 10 -9 10 -8 0
-18 -4 -21 -10z"/>
<path d="M1367 1994 c-11 -11 3 -24 24 -24 16 0 17 -3 8 -19 -10 -14 -9 -23 5
-42 l18 -24 -4 32 c-3 23 0 34 11 39 13 5 12 8 -6 15 -13 4 -23 13 -23 19 0
11 -23 14 -33 4z"/>
<path d="M1425 1990 c3 -5 10 -10 16 -10 5 0 9 5 9 10 0 6 -7 10 -16 10 -8 0
-12 -4 -9 -10z"/>
<path d="M1475 1980 c5 -15 3 -18 -9 -14 -9 3 -16 1 -16 -6 0 -6 5 -8 12 -4 8
5 9 2 5 -9 -3 -9 -2 -19 3 -22 6 -4 10 1 10 10 0 13 2 14 14 3 8 -7 12 -16 9
-20 -2 -5 1 -8 6 -8 15 0 13 11 -4 34 -8 11 -13 28 -9 38 4 12 0 18 -11 18
-12 0 -15 -6 -10 -20z"/>
<path d="M1510 1990 c0 -5 4 -10 9 -10 5 0 16 -3 25 -6 9 -3 16 -1 16 6 0 6
-4 9 -9 5 -5 -3 -12 -1 -16 5 -8 13 -25 13 -25 0z"/>
<path d="M1587 1985 c-7 -16 8 -29 23 -20 15 9 12 35 -4 35 -8 0 -16 -7 -19
-15z"/>
<path d="M1713 1979 c-1 -11 6 -17 20 -17 35 0 62 -9 60 -20 -10 -45 -11 -62
-3 -57 4 3 10 -2 14 -10 3 -8 1 -15 -4 -15 -6 0 -10 -9 -10 -21 0 -32 24 -17
27 16 1 16 -3 35 -10 43 -9 12 -8 14 8 10 15 -3 19 -11 17 -32 -3 -27 -3 -27
16 -9 11 10 23 28 26 41 4 12 12 20 17 17 5 -3 6 1 3 9 -3 9 -1 16 5 16 6 0
11 -5 11 -12 0 -20 18 5 26 36 5 21 4 27 -5 22 -6 -4 -9 -11 -6 -16 3 -5 1
-11 -5 -15 -5 -3 -10 -1 -10 6 0 8 -4 8 -15 -1 -13 -11 -14 -10 -9 4 4 9 1 16
-6 16 -8 0 -10 -9 -6 -25 5 -18 2 -25 -8 -25 -8 0 -18 5 -21 10 -8 13 -25 13
-25 0 0 -6 12 -15 28 -21 16 -7 22 -13 14 -16 -16 -6 -52 25 -52 44 0 7 -7 14
-15 14 -8 1 -19 3 -25 4 -5 1 -17 3 -26 4 -8 0 -13 5 -10 9 3 5 -1 9 -7 9 -7
0 -14 -8 -14 -18z"/>
<path d="M1783 1989 c9 -6 22 -7 27 -4 6 3 10 2 10 -3 0 -5 6 -9 14 -9 32 0 3
22 -32 24 -29 1 -33 0 -19 -8z"/>
<path d="M1989 1963 c-1 -24 -3 -29 -6 -15 -5 25 -18 29 -27 7 -3 -8 -1 -15 4
-15 21 0 9 -20 -15 -26 -28 -7 -29 -27 -1 -32 11 -2 19 4 23 17 3 12 9 21 13
21 10 0 7 -26 -3 -36 -11 -11 -8 -21 6 -27 10 -4 14 14 16 69 1 41 0 74 -3 74
-3 0 -7 -17 -7 -37z"/>
<path d="M360 1976 c0 -8 5 -18 10 -21 6 -3 10 3 10 14 0 12 -4 21 -10 21 -5
0 -10 -6 -10 -14z"/>
<path d="M690 1980 c0 -5 4 -10 9 -10 6 0 13 5 16 10 3 6 -1 10 -9 10 -9 0
-16 -4 -16 -10z"/>
<path d="M500 1971 c0 -6 4 -13 10 -16 6 -3 7 1 4 9 -7 18 -14 21 -14 7z"/>
<path d="M750 1970 c0 -5 5 -10 10 -10 6 0 10 5 10 10 0 6 -4 10 -10 10 -5 0
-10 -4 -10 -10z"/>
<path d="M790 1959 c0 -5 5 -7 10 -4 6 3 10 8 10 11 0 2 -4 4 -10 4 -5 0 -10
-5 -10 -11z"/>
<path d="M1047 1961 c-17 -6 -17 -9 -4 -19 12 -10 16 -9 21 4 8 21 6 23 -17
15z"/>
<path d="M1253 1955 c0 -8 4 -15 9 -15 4 0 8 4 8 9 0 6 -4 12 -8 15 -5 3 -9
-1 -9 -9z"/>
<path d="M1681 1964 c0 -6 -13 -16 -27 -22 -14 -7 -22 -17 -19 -22 4 -6 1 -18
-7 -27 -11 -15 -11 -16 5 -10 9 3 17 3 17 -2 0 -5 -9 -11 -20 -14 -12 -3 -20
-14 -20 -27 0 -19 2 -20 15 -10 8 7 12 16 9 21 -3 5 0 8 8 7 7 -2 14 7 16 20
2 12 8 22 14 22 5 0 8 6 5 14 -3 8 -1 16 5 18 6 2 8 13 5 23 -2 11 -5 15 -6 9z"/>
<path d="M1097 1926 c4 -24 2 -36 -6 -36 -6 0 -11 7 -11 15 0 8 -4 15 -10 15
-5 0 -10 -7 -10 -15 0 -8 4 -15 9 -15 17 0 20 -29 3 -42 -11 -9 -14 -10 -8 0
4 6 3 12 -3 12 -21 0 -21 -20 1 -24 34 -7 58 -4 58 7 0 5 -7 7 -15 3 -12 -4
-13 -2 -6 12 10 18 11 24 11 48 0 8 5 12 10 9 18 -11 11 11 -10 30 -19 17 -19
17 -13 -19z"/>
<path d="M1515 1950 c3 -5 11 -10 16 -10 6 0 7 5 4 10 -3 6 -11 10 -16 10 -6
0 -7 -4 -4 -10z"/>
<path d="M990 1940 c0 -5 5 -10 11 -10 5 0 7 5 4 10 -3 6 -8 10 -11 10 -2 0
-4 -4 -4 -10z"/>
<path d="M1325 1926 c-19 -29 -10 -63 12 -45 11 10 13 10 11 -1 -2 -7 3 -15
11 -18 8 -2 11 0 7 6 -3 6 -2 13 4 17 17 10 11 25 -12 35 -19 7 -19 9 -5 9 10
1 15 6 12 11 -10 16 -23 12 -40 -14z"/>
<path d="M1737 1942 c6 -4 12 -26 11 -50 0 -32 -4 -42 -17 -43 -10 0 -11 -2
-3 -6 17 -7 15 -23 -3 -23 -9 0 -18 7 -21 15 -8 19 -24 9 -23 -13 0 -12 2 -13
6 -4 4 10 9 7 20 -8 12 -17 17 -19 24 -9 6 11 11 11 21 1 15 -15 28 -16 28 -2
0 6 -8 10 -17 10 -15 0 -16 2 -3 10 11 7 11 10 2 10 -8 0 -10 5 -6 12 20 32
10 108 -15 108 -11 0 -12 -3 -4 -8z"/>
<path d="M517 1926 c-19 -20 -21 -32 -7 -41 6 -3 10 3 10 14 0 12 5 21 11 21
5 0 9 -8 8 -17 -1 -10 -1 -27 0 -38 1 -18 3 -18 12 -3 6 12 5 27 -4 49 -12 30
-14 31 -30 15z"/>
<path d="M901 1924 c-18 -21 -6 -30 14 -11 8 9 15 18 15 21 0 11 -15 5 -29
-10z"/>
<path d="M845 1920 c-3 -5 1 -10 10 -10 9 0 13 5 10 10 -3 6 -8 10 -10 10 -2
0 -7 -4 -10 -10z"/>
<path d="M1220 1915 c0 -8 2 -15 4 -15 2 0 6 7 10 15 3 8 1 15 -4 15 -6 0 -10
-7 -10 -15z"/>
<path d="M1278 1923 c7 -3 16 -2 19 1 4 3 -2 6 -13 5 -11 0 -14 -3 -6 -6z"/>
<path d="M592 1898 c-5 -21 -6 -21 -13 -2 -7 18 -8 17 -8 -3 -1 -31 25 -29 31
2 6 31 -2 33 -10 3z"/>
<path d="M1170 1900 c-6 -12 -7 -20 -1 -20 5 0 12 6 14 13 4 9 6 9 6 0 1 -6
-3 -15 -9 -18 -5 -3 -10 -13 -10 -21 0 -13 2 -13 14 -1 8 8 27 13 43 12 27 -1
29 1 25 24 -5 25 -5 25 -13 3 -10 -27 -29 -29 -29 -3 0 27 -28 34 -40 11z"/>
<path d="M1590 1901 c0 -25 6 -27 13 -6 4 8 2 17 -3 20 -6 4 -10 -3 -10 -14z"/>
<path d="M630 1900 c0 -5 8 -10 18 -10 10 0 24 -6 31 -12 11 -10 10 -8 0 10
-14 22 -49 31 -49 12z"/>
<path d="M810 1890 c0 -11 4 -20 9 -20 5 0 7 9 4 20 -3 11 -7 20 -9 20 -2 0
-4 -9 -4 -20z"/>
<path d="M1435 1900 c3 -5 8 -10 11 -10 2 0 4 5 4 10 0 6 -5 10 -11 10 -5 0
-7 -4 -4 -10z"/>
<path d="M1527 1887 c-9 -12 -17 -26 -17 -33 0 -6 -7 -17 -15 -24 -8 -7 -15
-20 -15 -29 0 -11 8 -7 25 14 13 17 22 36 20 42 -2 7 5 19 16 27 11 8 17 16
12 19 -5 3 -16 -4 -26 -16z"/>
<path d="M1687 1904 c-4 -4 -7 -14 -7 -23 0 -11 3 -12 11 -4 6 6 10 16 7 23
-2 6 -7 8 -11 4z"/>
<path d="M91 1874 c-13 -13 -29 -24 -37 -24 -7 0 -18 -8 -23 -17 -9 -16 -12
-16 -21 -3 -9 12 -10 9 -4 -10 3 -14 14 -33 23 -43 15 -17 14 -20 -4 -33 -18
-13 -18 -14 5 -14 13 0 32 8 43 18 19 16 20 16 14 0 -4 -10 -2 -18 4 -18 6 0
8 -4 5 -8 -2 -4 -1 -14 4 -22 6 -10 8 -6 6 15 -2 17 -4 35 -5 42 0 7 -16 16
-33 21 -18 4 -34 16 -36 25 -3 13 1 15 15 10 10 -3 22 -13 26 -20 11 -18 27
-7 27 19 0 17 -5 20 -30 16 -32 -5 -43 8 -12 14 31 7 63 -4 58 -18 -6 -17 3
-18 24 -3 8 6 11 12 5 15 -33 14 -39 23 -26 37 21 26 -3 27 -28 1z"/>
<path d="M359 1884 c-8 -30 1 -54 19 -54 14 0 14 2 3 9 -11 7 -5 13 24 25 20
9 42 16 47 16 5 0 6 5 3 10 -4 7 -11 8 -18 2 -21 -17 -52 -18 -63 -3 -9 12
-12 11 -15 -5z"/>
<path d="M963 1893 c-7 -2 -13 -9 -13 -15 0 -7 5 -6 14 1 10 8 21 9 42 1 16
-6 25 -7 19 -2 -14 13 -47 21 -62 15z"/>
<path d="M0 1880 c0 -5 12 -10 28 -10 21 0 24 2 12 10 -20 13 -40 13 -40 0z"/>
<path d="M704 1878 c1 -7 5 -19 9 -25 5 -7 5 -19 1 -25 -6 -10 -4 -10 8 0 13
10 17 10 21 0 2 -7 8 -9 13 -5 5 5 1 13 -9 18 -9 6 -17 19 -17 29 0 11 -6 20
-14 20 -8 0 -13 -6 -12 -12z"/>
<path d="M910 1875 c-11 -13 -10 -14 4 -9 9 3 16 10 16 15 0 13 -6 11 -20 -6z"/>
<path d="M1390 1880 c0 -5 5 -10 11 -10 5 0 7 5 4 10 -3 6 -8 10 -11 10 -2 0
-4 -4 -4 -10z"/>
<path d="M1894 1875 c-18 -14 -18 -15 -1 -9 17 6 18 5 6 -14 -9 -14 -20 -20
-31 -16 -12 4 -18 0 -18 -11 0 -9 -4 -14 -9 -10 -5 3 -12 1 -16 -5 -3 -5 -1
-10 5 -10 7 0 10 -6 7 -12 -2 -7 0 -22 5 -32 9 -16 7 -18 -11 -13 -20 5 -20 4
-6 -29 8 -20 10 -36 4 -39 -12 -8 -12 -35 1 -35 6 0 10 6 10 14 0 7 9 16 20
19 18 5 19 8 9 31 -7 14 -17 23 -23 20 -6 -3 -3 1 6 9 13 10 14 17 6 25 -6 6
-8 15 -4 19 4 4 11 1 16 -7 13 -20 12 -3 0 21 -13 23 -4 25 17 3 15 -14 17
-14 25 0 5 9 7 20 3 25 -3 5 -1 12 5 16 10 6 9 39 -1 50 -3 2 -14 -2 -25 -10z"/>
<path d="M250 1865 c0 -8 4 -15 10 -15 5 0 7 7 4 15 -4 8 -8 15 -10 15 -2 0
-4 -7 -4 -15z"/>
<path d="M630 1870 c0 -14 15 -19 29 -11 9 6 7 10 -8 14 -12 3 -21 1 -21 -3z"/>
<path d="M1447 1859 c6 -21 11 -23 33 -9 17 10 11 19 -18 25 -15 3 -19 -1 -15
-16z"/>
<path d="M1550 1866 c0 -8 7 -16 15 -20 13 -4 14 -2 5 14 -13 23 -20 26 -20 6z"/>
<path d="M333 1864 c3 -5 -1 -18 -9 -29 -9 -12 -14 -14 -14 -5 0 7 -3 11 -6 7
-3 -3 4 -24 17 -46 15 -27 25 -37 30 -29 5 7 -1 18 -13 26 -18 13 -19 16 -4
24 19 10 21 43 4 54 -6 4 -9 3 -5 -2z"/>
<path d="M455 1860 c-3 -5 -1 -10 4 -10 6 0 11 5 11 10 0 6 -2 10 -4 10 -3 0
-8 -4 -11 -10z"/>
<path d="M835 1860 c-3 -5 -1 -10 4 -10 6 0 11 5 11 10 0 6 -2 10 -4 10 -3 0
-8 -4 -11 -10z"/>
<path d="M1276 1854 c-9 -22 -8 -24 10 -24 8 0 12 5 9 10 -3 6 2 10 12 10 15
0 16 2 3 10 -21 13 -27 12 -34 -6z"/>
<path d="M1940 1851 c0 -12 -5 -21 -11 -21 -8 0 -8 -4 -1 -13 7 -8 7 -18 2
-27 -5 -8 -6 -18 -4 -22 3 -4 -2 -8 -10 -8 -17 0 -21 -15 -7 -24 5 -4 11 0 14
6 2 7 7 -2 12 -21 5 -25 10 -30 16 -20 12 19 11 32 -1 24 -5 -3 -10 -2 -10 4
0 5 5 13 10 16 16 10 12 25 -7 25 -14 0 -14 3 -5 12 10 10 15 10 22 -2 9 -13
11 -13 20 0 7 11 5 16 -5 18 -9 2 -13 7 -10 12 3 5 12 7 20 3 11 -4 13 -1 9
11 -3 9 -10 16 -14 16 -5 0 -16 7 -24 16 -15 14 -16 14 -16 -5z"/>
<path d="M177 1839 c4 -13 8 -18 11 -10 2 7 -1 18 -6 23 -8 8 -9 4 -5 -13z"/>
<path d="M412 1840 c-7 -11 -10 -20 -6 -20 7 0 34 27 34 34 0 13 -16 5 -28
-14z"/>
<path d="M914 1845 c-3 -8 -4 -20 -2 -27 3 -7 7 -1 10 15 6 29 1 36 -8 12z"/>
<path d="M960 1849 c0 -5 9 -9 20 -9 11 0 20 2 20 4 0 2 -9 6 -20 9 -11 3 -20
1 -20 -4z"/>
<path d="M500 1835 c0 -8 2 -15 4 -15 2 0 6 7 10 15 3 8 1 15 -4 15 -6 0 -10
-7 -10 -15z"/>
<path d="M573 1836 c3 -8 -1 -17 -10 -20 -9 -4 -13 -9 -9 -13 3 -3 15 2 27 13
12 10 23 18 25 17 2 -2 7 -3 12 -3 4 0 0 5 -8 10 -22 14 -43 12 -37 -4z"/>
<path d="M644 1842 c-6 -4 -13 -15 -17 -25 -4 -10 -11 -15 -17 -12 -5 3 -10
-1 -10 -9 0 -27 24 -18 43 15 18 33 19 43 1 31z"/>
<path d="M269 1812 c6 -20 5 -34 -2 -41 -8 -8 -5 -11 11 -11 19 0 20 3 12 24
-5 13 -7 26 -4 29 2 2 -2 10 -10 16 -13 11 -14 9 -7 -17z"/>
<path d="M1336 1832 c-4 -7 -5 -12 -2 -12 2 0 11 -3 20 -6 9 -3 16 -1 16 6 0
6 -4 9 -9 6 -5 -4 -11 -1 -13 6 -3 9 -6 9 -12 0z"/>
<path d="M217 1809 c-18 -20 -18 -21 2 -14 17 5 20 3 15 -12 -5 -15 -4 -15 4
-3 7 9 7 19 2 26 -6 6 -7 14 -3 17 3 4 4 7 2 7 -3 0 -13 -9 -22 -21z"/>
<path d="M1385 1813 c3 -8 5 -17 5 -19 0 -2 12 -4 26 -4 14 0 23 4 19 10 -3 5
-12 7 -20 3 -10 -3 -13 -1 -10 9 4 9 0 15 -10 15 -10 0 -14 -6 -10 -14z"/>
<path d="M1560 1820 c0 -5 5 -10 10 -10 6 0 10 5 10 10 0 6 -4 10 -10 10 -5 0
-10 -4 -10 -10z"/>
<path d="M466 1804 c-3 -9 -6 -23 -6 -32 1 -13 4 -11 13 6 7 12 17 19 22 15 5
-4 3 0 -4 10 -16 21 -17 21 -25 1z"/>
<path d="M887 1813 c-4 -3 -7 -11 -7 -17 0 -6 5 -5 12 2 6 6 9 14 7 17 -3 3
-9 2 -12 -2z"/>
<path d="M1060 1810 c0 -5 5 -10 10 -10 6 0 10 5 10 10 0 6 -4 10 -10 10 -5 0
-10 -4 -10 -10z"/>
<path d="M1151 1794 c-15 -15 -32 -24 -43 -21 -23 6 -24 -9 -1 -17 11 -5 26 4
45 24 25 28 33 40 26 40 -2 0 -14 -12 -27 -26z"/>
<path d="M395 1773 c-4 -23 -9 -32 -14 -24 -6 10 -10 9 -14 -3 -9 -22 5 -27
28 -10 10 8 15 14 11 14 -5 0 -3 6 3 13 6 8 8 17 4 20 -3 4 2 7 13 7 16 0 17
2 4 10 -24 15 -27 12 -35 -27z"/>
<path d="M848 1803 c7 -3 16 -2 19 1 4 3 -2 6 -13 5 -11 0 -14 -3 -6 -6z"/>
<path d="M1194 1799 c-7 -12 12 -29 33 -29 6 0 15 5 19 12 4 7 3 8 -4 4 -7 -4
-12 -1 -12 8 0 18 -25 21 -36 5z"/>
<path d="M1316 1795 c-3 -8 -1 -15 4 -15 13 0 22 18 11 24 -5 3 -11 -1 -15 -9z"/>
<path d="M1507 1803 c-10 -9 -9 -23 2 -23 5 0 11 7 15 15 5 15 -5 20 -17 8z"/>
<path d="M120 1783 c0 -8 12 -13 30 -13 17 0 30 4 30 9 0 5 -13 11 -30 13 -20
3 -30 0 -30 -9z"/>
<path d="M720 1790 c0 -5 7 -7 15 -4 8 4 15 8 15 10 0 2 -7 4 -15 4 -8 0 -15
-4 -15 -10z"/>
<path d="M1670 1781 c0 -25 6 -27 13 -6 4 8 2 17 -3 20 -6 4 -10 -3 -10 -14z"/>
<path d="M785 1780 c3 -5 8 -10 11 -10 2 0 4 5 4 10 0 6 -5 10 -11 10 -5 0 -7
-4 -4 -10z"/>
<path d="M1013 1783 c4 -3 0 -14 -8 -23 -14 -15 -14 -19 1 -31 15 -12 16 -11
10 9 -6 17 -4 21 8 16 18 -7 19 -4 10 20 -3 9 -11 16 -17 16 -6 0 -7 -3 -4 -7z"/>
<path d="M1265 1780 c-8 -13 5 -13 25 0 13 8 13 10 -2 10 -9 0 -20 -4 -23 -10z"/>
<path d="M1811 1774 c0 -11 3 -14 6 -6 3 7 2 16 -1 19 -3 4 -6 -2 -5 -13z"/>
<path d="M0 1767 c0 -10 8 -17 18 -17 9 0 13 4 7 8 -5 4 -13 11 -17 16 -5 5
-8 2 -8 -7z"/>
<path d="M550 1760 c6 -11 13 -20 15 -20 3 0 5 9 5 20 0 11 -7 20 -15 20 -13
0 -14 -4 -5 -20z"/>
<path d="M1061 1764 c0 -11 3 -14 6 -6 3 7 2 16 -1 19 -3 4 -6 -2 -5 -13z"/>
<path d="M1314 1763 c-12 -12 -13 -18 -4 -21 16 -6 45 24 32 32 -6 3 -18 -2
-28 -11z"/>
<path d="M1463 1766 c-9 -11 -7 -14 12 -12 17 1 21 4 13 14 -12 14 -10 14 -25
-2z"/>
<path d="M630 1759 c0 -5 7 -9 15 -9 8 0 15 -6 15 -14 0 -21 29 -28 46 -11 9
8 12 15 7 15 -5 0 -15 -6 -21 -12 -10 -10 -14 -8 -18 9 -6 21 -44 40 -44 22z"/>
<path d="M1160 1739 c-10 -24 -10 -32 0 -42 10 -10 12 -8 8 9 -6 25 9 57 23
49 5 -4 9 -1 9 4 0 23 -28 9 -40 -20z"/>
<path d="M1418 1763 c7 -3 16 -2 19 1 4 3 -2 6 -13 5 -11 0 -14 -3 -6 -6z"/>
<path d="M1640 1760 c0 -5 5 -10 10 -10 6 0 10 5 10 10 0 6 -4 10 -10 10 -5 0
-10 -4 -10 -10z"/>
<path d="M595 1749 c-4 -6 -5 -12 -2 -15 2 -3 7 2 10 11 7 17 1 20 -8 4z"/>
<path d="M958 1753 c7 -3 16 -2 19 1 4 3 -2 6 -13 5 -11 0 -14 -3 -6 -6z"/>
<path d="M1261 1746 c-9 -10 -8 -15 4 -20 10 -4 15 1 15 14 0 24 -4 25 -19 6z"/>
<path d="M1974 1748 c-4 -7 -3 -8 4 -4 15 9 15 1 1 -25 -6 -12 -7 -28 -4 -37
6 -15 8 -15 15 3 19 46 6 98 -16 63z"/>
<path d="M165 1740 c3 -5 10 -10 16 -10 5 0 9 5 9 10 0 6 -7 10 -16 10 -8 0
-12 -4 -9 -10z"/>
<path d="M250 1735 c0 -8 4 -15 10 -15 5 0 7 7 4 15 -4 8 -8 15 -10 15 -2 0
-4 -7 -4 -15z"/>
<path d="M290 1750 c-12 -34 -9 -68 6 -74 14 -5 15 -4 4 9 -7 9 -10 18 -7 21
9 9 37 -22 37 -40 0 -20 16 -21 24 -1 3 9 -1 18 -9 22 -10 3 -13 12 -9 25 4
14 2 18 -5 14 -6 -4 -11 -2 -11 4 0 6 -4 9 -9 6 -5 -4 -12 0 -14 6 -3 7 -6 11
-7 8z"/>
<path d="M1557 1736 c-3 -8 0 -20 8 -26 8 -6 11 -18 8 -26 -3 -8 -1 -14 4 -14
5 0 10 11 11 25 1 18 -3 25 -16 25 -13 0 -14 2 -3 9 8 5 9 11 3 15 -5 3 -12
-1 -15 -8z"/>
<path d="M1600 1735 c0 -8 8 -15 18 -14 10 0 12 3 4 6 -6 2 -10 9 -6 14 3 5 0
9 -5 9 -6 0 -11 -7 -11 -15z"/>
<path d="M1756 1742 c-3 -6 0 -13 6 -16 10 -3 8 -9 -4 -19 -20 -16 -24 -37 -8
-37 16 0 31 49 21 67 -5 10 -11 12 -15 5z"/>
<path d="M130 1732 c0 -5 7 -13 16 -16 10 -4 14 -1 12 6 -5 15 -28 23 -28 10z"/>
<path d="M960 1730 c0 -5 5 -10 11 -10 5 0 7 5 4 10 -3 6 -8 10 -11 10 -2 0
-4 -4 -4 -10z"/>
<path d="M1680 1726 c0 -9 5 -16 10 -16 6 0 10 4 10 9 0 6 -4 13 -10 16 -5 3
-10 -1 -10 -9z"/>
<path d="M1715 1720 c3 -5 8 -10 11 -10 2 0 4 5 4 10 0 6 -5 10 -11 10 -5 0
-7 -4 -4 -10z"/>
<path d="M1801 1714 c0 -11 3 -14 6 -6 3 7 2 16 -1 19 -3 4 -6 -2 -5 -13z"/>
<path d="M400 1713 c0 -5 7 -18 15 -29 13 -18 14 -18 8 4 -5 22 -23 41 -23 25z"/>
<path d="M501 1702 c-7 -12 -10 -23 -9 -23 14 -6 60 -7 52 -1 -6 4 -15 16 -21
26 -10 19 -11 18 -22 -2z"/>
<path d="M893 1713 c-18 -7 -16 -23 2 -23 8 0 15 -4 15 -10 0 -5 8 -10 17 -10
15 0 15 1 -2 13 -10 8 -15 19 -11 25 7 12 0 14 -21 5z"/>
<path d="M1247 1700 c4 -14 1 -20 -8 -18 -7 2 -15 -6 -17 -17 -4 -20 -4 -20
17 -1 22 20 27 41 12 50 -5 4 -7 -3 -4 -14z"/>
<path d="M40 1694 c0 -9 5 -14 12 -12 18 6 21 28 4 28 -9 0 -16 -7 -16 -16z"/>
<path d="M640 1695 c0 -9 6 -12 15 -9 11 5 14 2 9 -12 -6 -15 -4 -17 6 -7 11
10 11 15 0 28 -16 19 -30 19 -30 0z"/>
<path d="M801 1696 c-7 -8 -8 -17 -3 -20 6 -3 13 1 16 10 9 23 2 28 -13 10z"/>
<path d="M1201 1694 c0 -11 3 -14 6 -6 3 7 2 16 -1 19 -3 4 -6 -2 -5 -13z"/>
<path d="M1270 1700 c0 -5 7 -10 15 -10 8 0 15 5 15 10 0 6 -7 10 -15 10 -8 0
-15 -4 -15 -10z"/>
<path d="M1320 1700 c0 -5 5 -10 10 -10 6 0 10 5 10 10 0 6 -4 10 -10 10 -5 0
-10 -4 -10 -10z"/>
<path d="M1643 1696 c-15 -18 -21 -45 -8 -43 6 1 9 8 9 14 -1 7 2 10 7 7 5 -3
9 4 9 15 0 24 -1 25 -17 7z"/>
<path d="M163 1684 c-4 -12 -7 -13 -14 -3 -4 8 -11 10 -14 7 -11 -11 5 -28 26
-28 12 0 19 7 19 20 0 24 -8 26 -17 4z"/>
<path d="M827 1686 c-3 -8 0 -17 8 -20 14 -5 28 17 18 28 -10 10 -21 7 -26 -8z"/>
<path d="M596 1653 c9 -51 14 -54 14 -10 0 20 -5 39 -11 42 -7 5 -8 -5 -3 -32z"/>
<path d="M957 1683 c-10 -9 -9 -63 1 -63 4 0 8 8 8 18 1 9 4 25 9 35 7 17 -5
24 -18 10z"/>
<path d="M1488 1665 c-3 -14 -1 -25 3 -25 5 0 9 11 9 25 0 14 -2 25 -4 25 -2
0 -6 -11 -8 -25z"/>
<path d="M1705 1681 c-6 -11 9 -23 19 -14 9 9 7 23 -3 23 -6 0 -12 -4 -16 -9z"/>
<path d="M55 1670 c-3 -5 1 -10 10 -10 9 0 13 5 10 10 -3 6 -8 10 -10 10 -2 0
-7 -4 -10 -10z"/>
<path d="M250 1668 c0 -9 5 -20 10 -23 13 -8 13 5 0 25 -8 13 -10 13 -10 -2z"/>
<path d="M881 1664 c0 -11 3 -14 6 -6 3 7 2 16 -1 19 -3 4 -6 -2 -5 -13z"/>
<path d="M1275 1670 c3 -5 14 -10 23 -10 15 0 15 2 2 10 -20 13 -33 13 -25 0z"/>
<path d="M1775 1671 c-3 -5 0 -13 6 -16 5 -4 8 -13 5 -21 -3 -8 -1 -14 3 -14
16 0 20 28 5 34 -9 3 -12 10 -9 16 3 5 4 10 1 10 -3 0 -7 -4 -11 -9z"/>
<path d="M98 1663 c7 -3 16 -2 19 1 4 3 -2 6 -13 5 -11 0 -14 -3 -6 -6z"/>
<path d="M1399 1658 c-8 -7 -12 -12 -10 -11 2 2 10 -2 18 -8 10 -9 13 -7 13
10 0 25 -1 25 -21 9z"/>
<path d="M1515 1647 c-8 -32 -3 -43 12 -25 6 7 7 22 3 33 -7 18 -8 17 -15 -8z"/>
<path d="M1660 1660 c0 -5 5 -10 10 -10 6 0 10 5 10 10 0 6 -4 10 -10 10 -5 0
-10 -4 -10 -10z"/>
<path d="M220 1644 c0 -8 5 -12 10 -9 6 4 8 11 5 16 -9 14 -15 11 -15 -7z"/>
<path d="M377 1653 c-4 -3 -7 -11 -7 -17 0 -6 5 -5 12 2 6 6 9 14 7 17 -3 3
-9 2 -12 -2z"/>
<path d="M740 1650 c19 -13 30 -13 30 0 0 6 -10 10 -22 10 -19 0 -20 -2 -8
-10z"/>
<path d="M992 1651 c4 -13 18 -16 19 -4 0 4 -5 9 -11 12 -7 2 -11 -2 -8 -8z"/>
<path d="M1100 1654 c0 -13 18 -39 24 -34 2 3 -2 14 -10 24 -8 11 -14 16 -14
10z"/>
<path d="M1120 1655 c0 -2 10 -10 23 -16 20 -11 21 -11 8 4 -13 16 -31 23 -31
12z"/>
<path d="M1246 1644 c-11 -28 -6 -54 9 -54 8 0 15 7 15 16 0 8 -4 12 -10 9 -6
-3 -7 1 -4 10 4 9 13 14 22 10 12 -4 13 -3 2 10 -16 19 -26 19 -34 -1z"/>
<path d="M1936 1644 c-8 -21 -8 -24 3 -24 5 0 12 8 14 18 4 14 6 14 12 -5 7
-23 16 -28 28 -17 6 6 -34 44 -46 44 -3 0 -8 -7 -11 -16z"/>
<path d="M59 1640 c-14 -8 -15 -17 -9 -46 11 -49 19 -53 26 -16 4 21 12 32 24
32 25 0 31 10 15 26 -16 16 -33 17 -56 4z"/>
<path d="M190 1640 c-13 -8 -12 -10 3 -10 9 0 17 5 17 10 0 12 -1 12 -20 0z"/>
<path d="M527 1643 c-4 -3 -7 -11 -7 -17 0 -6 5 -5 12 2 6 6 9 14 7 17 -3 3
-9 2 -12 -2z"/>
<path d="M645 1640 c-3 -5 3 -10 14 -10 12 0 21 5 21 10 0 6 -6 10 -14 10 -8
0 -18 -4 -21 -10z"/>
<path d="M810 1638 c0 -10 6 -18 13 -18 6 0 -1 -12 -18 -25 -16 -14 -38 -33
-47 -42 -11 -10 -18 -12 -18 -5 0 7 -6 12 -13 12 -17 0 -41 -43 -34 -62 2 -7
-5 -26 -18 -43 -12 -16 -28 -45 -36 -62 -8 -18 -18 -33 -23 -33 -4 0 -6 -6 -3
-14 3 -8 1 -16 -5 -18 -18 -6 -19 -48 -3 -71 9 -12 18 -20 21 -18 3 1 18 -3
35 -9 22 -10 27 -15 17 -21 -8 -6 -2 -9 20 -9 21 0 32 -5 32 -14 0 -9 7 -12
19 -9 10 2 24 -2 32 -9 8 -8 30 -20 49 -28 19 -7 40 -17 47 -22 7 -5 14 -5 18
2 3 5 1 10 -5 10 -14 0 -3 39 18 63 12 13 17 15 24 5 4 -7 5 1 2 20 -4 21 -3
32 5 32 6 0 11 5 11 11 0 6 7 17 15 25 8 9 15 24 15 35 0 10 5 19 10 19 6 0
10 -6 10 -14 0 -8 7 -16 15 -20 9 -3 12 -12 9 -21 -4 -9 1 -21 11 -29 12 -8
16 -20 12 -30 -4 -9 -3 -14 2 -11 13 8 22 -10 15 -30 -4 -9 -13 -14 -20 -11
-8 3 -14 1 -14 -4 0 -6 -9 -10 -19 -10 -11 0 -22 -4 -25 -9 -9 -14 32 -44 54
-38 11 3 22 1 25 -3 3 -4 14 -6 25 -3 11 3 20 0 20 -6 0 -5 6 -8 14 -5 10 4
12 -1 9 -19 -5 -26 10 -43 28 -31 8 5 7 9 -4 15 -17 10 -11 52 7 46 6 -3 10
-10 8 -16 -1 -6 2 -11 8 -11 5 0 10 7 10 15 0 12 12 15 58 14 31 -1 60 -6 63
-12 4 -5 9 -5 13 2 4 6 2 11 -3 11 -11 0 -6 13 21 60 4 8 11 22 15 30 4 8 11
18 15 21 5 3 11 12 13 20 10 44 18 57 31 52 8 -3 14 -1 14 5 0 6 -5 12 -11 14
-7 2 -4 15 7 35 10 17 16 34 14 37 -12 11 -60 18 -60 7 0 -6 8 -8 18 -4 11 4
14 3 7 -4 -5 -6 -24 -13 -40 -16 -28 -5 -32 -2 -51 39 -16 34 -18 44 -7 44 8
0 12 4 9 9 -3 4 -17 7 -32 5 -23 -2 -25 1 -21 22 3 18 1 22 -8 14 -15 -12 -25
-3 -18 16 3 8 -1 14 -9 14 -21 0 -78 57 -78 78 -1 16 -1 16 -10 0 -8 -13 -26
-16 -92 -16 -45 0 -90 4 -100 9 -12 7 -18 6 -18 -1 0 -7 -15 -10 -37 -8 -30 2
-38 7 -38 23 0 12 -6 19 -14 17 -8 -2 -18 3 -22 10 -7 10 -9 9 -9 -4z m195
-238 c-3 -5 -11 -10 -16 -10 -6 0 -7 5 -4 10 3 6 11 10 16 10 6 0 7 -4 4 -10z
m-235 -60 c0 -5 -4 -10 -10 -10 -5 0 -10 5 -10 10 0 6 5 10 10 10 6 0 10 -4
10 -10z m430 -10 c0 -5 -4 -10 -10 -10 -5 0 -10 5 -10 10 0 6 5 10 10 10 6 0
10 -4 10 -10z m-56 -111 c-14 -23 -60 1 -51 25 6 15 9 15 32 0 14 -9 22 -20
19 -25z"/>
<path d="M1703 1632 c1 -14 5 -18 11 -12 7 7 6 14 -1 21 -9 9 -12 7 -10 -9z"/>
<path d="M1874 1635 c3 -8 0 -15 -6 -15 -9 0 -9 -3 0 -12 10 -10 15 -10 22 2
15 23 12 40 -6 40 -10 0 -14 -6 -10 -15z"/>
<path d="M0 1630 c0 -5 5 -10 10 -10 6 0 10 5 10 10 0 6 -4 10 -10 10 -5 0
-10 -4 -10 -10z"/>
<path d="M318 1633 c7 -3 16 -2 19 1 4 3 -2 6 -13 5 -11 0 -14 -3 -6 -6z"/>
<path d="M547 1618 c-3 -12 -2 -29 3 -37 7 -13 9 -10 10 12 0 17 5 27 15 27 8
0 15 5 15 10 0 20 -38 10 -43 -12z"/>
<path d="M1174 1628 c-4 -7 -4 -10 1 -6 4 4 15 2 23 -5 12 -10 14 -9 11 2 -7
20 -26 25 -35 9z"/>
<path d="M133 1604 c-41 -46 -28 -84 28 -84 49 0 51 17 3 26 -23 4 -31 9 -23
14 7 5 24 4 38 -1 25 -10 25 -10 6 11 -13 14 -22 17 -29 10 -13 -13 -26 -13
-26 -1 0 5 9 13 20 16 11 3 20 13 20 21 0 21 -12 17 -37 -12z"/>
<path d="M274 1604 c-1 -13 2 -24 8 -24 5 0 7 4 4 9 -4 5 -1 11 5 13 8 3 7 7
-2 15 -11 9 -14 6 -15 -13z"/>
<path d="M387 1616 c-3 -8 -2 -18 3 -21 13 -8 20 9 11 24 -6 10 -10 9 -14 -3z"/>
<path d="M436 1617 c-16 -12 -16 -14 -2 -26 9 -8 19 -11 23 -7 3 3 1 6 -6 6
-9 0 -9 5 -1 20 13 23 10 25 -14 7z"/>
<path d="M780 1621 c0 -6 4 -13 10 -16 6 -3 7 1 4 9 -7 18 -14 21 -14 7z"/>
<path d="M650 1605 c-9 -10 -9 -15 -1 -15 6 0 11 5 11 11 0 5 5 7 12 3 7 -4 8
-3 4 4 -9 15 -11 15 -26 -3z"/>
<path d="M694 1604 c3 -9 6 -20 6 -25 0 -5 9 -9 20 -9 26 0 25 8 -2 31 -26 23
-32 24 -24 3z"/>
<path d="M310 1597 c0 -14 20 -37 32 -37 11 0 6 22 -9 37 -15 17 -23 16 -23 0z"/>
<path d="M575 1600 c-3 -5 -1 -10 4 -10 6 0 11 5 11 10 0 6 -2 10 -4 10 -3 0
-8 -4 -11 -10z"/>
<path d="M1770 1595 c0 -8 7 -15 15 -15 9 0 12 6 9 15 -4 8 -10 15 -15 15 -5
0 -9 -7 -9 -15z"/>
<path d="M1816 1570 c-11 -29 -21 -40 -34 -38 -13 2 -17 -3 -15 -24 1 -20 -3
-28 -15 -29 -14 0 -13 -2 3 -8 26 -11 54 8 31 21 -22 12 -20 28 2 28 13 0 24
14 35 42 9 23 15 43 13 45 -2 2 -11 -15 -20 -37z"/>
<path d="M1916 1605 c12 -6 7 -52 -7 -61 -5 -3 -9 -12 -9 -21 0 -11 5 -9 19 8
10 13 19 28 19 33 0 5 6 12 13 17 16 10 12 15 -21 23 -14 3 -20 3 -14 1z"/>
<path d="M195 1590 c-3 -5 1 -10 9 -10 9 0 16 5 16 10 0 6 -4 10 -9 10 -6 0
-13 -4 -16 -10z"/>
<path d="M1527 1579 c4 -13 8 -18 11 -10 2 7 -1 18 -6 23 -8 8 -9 4 -5 -13z"/>
<path d="M1665 1580 c4 -6 11 -8 16 -5 14 9 11 15 -7 15 -8 0 -12 -5 -9 -10z"/>
<path d="M10 1566 c0 -22 17 -28 24 -10 9 22 8 24 -9 24 -8 0 -15 -6 -15 -14z"/>
<path d="M570 1571 c0 -6 5 -13 10 -16 6 -3 10 1 10 9 0 9 -4 16 -10 16 -5 0
-10 -4 -10 -9z"/>
<path d="M653 1565 c-3 -9 -3 -19 1 -22 8 -9 37 18 30 28 -8 14 -24 11 -31 -6z"/>
<path d="M1890 1565 c0 -8 5 -15 10 -15 6 0 10 7 10 15 0 8 -4 15 -10 15 -5 0
-10 -7 -10 -15z"/>
<path d="M1971 1567 c-6 -8 -8 -17 -4 -20 3 -4 -1 -7 -9 -7 -17 0 -31 -24 -32
-55 -1 -20 11 -35 29 -35 6 0 5 4 -1 8 -6 4 -14 16 -18 27 -4 16 1 23 23 33
17 8 31 22 34 37 5 28 -4 32 -22 12z"/>
<path d="M253 1562 c-8 -5 -9 -13 -3 -22 8 -12 10 -11 10 5 1 19 2 19 20 -4
24 -28 26 -43 5 -35 -8 4 -12 11 -8 17 3 6 1 7 -6 3 -6 -4 -9 -12 -6 -17 4 -5
-1 -12 -9 -15 -24 -9 -7 -26 17 -18 12 4 31 7 42 6 16 -1 17 1 5 8 -13 9 -13
11 0 20 13 9 13 10 0 10 -8 1 -4 6 10 12 24 9 24 10 5 17 -40 15 -70 20 -82
13z"/>
<path d="M524 1551 c0 -15 3 -17 13 -9 7 6 10 14 7 19 -9 15 -20 10 -20 -10z"/>
<path d="M614 1556 c-10 -25 0 -38 13 -17 8 13 9 22 3 26 -6 4 -13 -1 -16 -9z"/>
<path d="M80 1549 c0 -5 5 -7 10 -4 6 3 10 8 10 11 0 2 -4 4 -10 4 -5 0 -10
-5 -10 -11z"/>
<path d="M476 1523 c-6 -14 -5 -15 5 -6 7 7 10 15 7 18 -3 3 -9 -2 -12 -12z"/>
<path d="M1845 1530 c-3 -5 -4 -10 0 -10 3 0 -2 -14 -10 -30 -9 -18 -21 -28
-27 -24 -6 4 -8 3 -5 -4 10 -15 47 -3 40 14 -3 9 0 12 8 9 10 -4 14 4 15 25 1
30 -9 39 -21 20z"/>
<path d="M0 1520 c0 -5 6 -10 14 -10 9 0 12 -9 9 -27 -3 -26 -3 -27 6 -5 6 12
8 29 5 37 -7 17 -34 21 -34 5z"/>
<path d="M537 1523 c-4 -3 -7 -13 -7 -22 1 -13 3 -13 11 2 11 19 8 33 -4 20z"/>
<path d="M578 1505 c7 -36 19 -40 18 -5 -1 17 -6 30 -12 30 -7 0 -9 -10 -6
-25z"/>
<path d="M1345 1520 c3 -5 8 -10 11 -10 2 0 4 5 4 10 0 6 -5 10 -11 10 -5 0
-7 -4 -4 -10z"/>
<path d="M1688 1523 c7 -3 16 -2 19 1 4 3 -2 6 -13 5 -11 0 -14 -3 -6 -6z"/>
<path d="M340 1505 c0 -8 2 -15 4 -15 2 0 6 7 10 15 3 8 1 15 -4 15 -6 0 -10
-7 -10 -15z"/>
<path d="M387 1503 c3 -7 6 -13 8 -13 2 0 5 6 8 13 3 8 -1 14 -8 14 -7 0 -11
-6 -8 -14z"/>
<path d="M640 1497 c-16 -14 -24 -30 -22 -44 5 -33 21 -28 19 5 -2 21 2 26 16
24 11 -2 17 4 17 18 0 25 0 25 -30 -3z"/>
<path d="M1289 1507 c6 -8 8 -17 4 -20 -3 -4 -3 -7 0 -7 3 0 11 9 17 20 9 17
8 20 -11 20 -17 0 -19 -3 -10 -13z"/>
<path d="M120 1491 c0 -10 12 -26 26 -36 24 -16 27 -16 47 1 12 10 16 12 10 4
-16 -17 -17 -30 -2 -30 6 0 17 -7 26 -15 14 -14 17 -14 36 2 20 18 20 17 14
-7 -4 -14 -7 -31 -7 -37 0 -7 -12 -13 -27 -13 -25 -1 -26 -2 -12 -13 9 -7 19
-21 22 -32 4 -16 5 -14 6 6 0 15 8 32 16 39 9 7 14 19 11 26 -3 7 2 15 11 18
14 6 14 9 -3 25 -19 17 -59 17 -48 0 3 -5 0 -9 -5 -9 -11 0 -15 19 -12 52 3
24 -12 29 -41 14 -16 -8 -31 -10 -39 -5 -10 6 -8 9 9 9 12 0 22 5 22 10 0 6
-13 10 -30 10 -23 0 -30 -5 -30 -19z"/>
<path d="M1641 1494 c0 -11 3 -14 6 -6 3 7 2 16 -1 19 -3 4 -6 -2 -5 -13z"/>
<path d="M1686 1501 c-4 -7 -5 -15 -2 -18 9 -9 19 4 14 18 -4 11 -6 11 -12 0z"/>
<path d="M56 1487 c3 -10 9 -15 12 -12 3 3 0 11 -7 18 -10 9 -11 8 -5 -6z"/>
<path d="M436 1477 c1 -12 3 -25 3 -29 1 -5 5 -8 10 -8 13 0 10 48 -4 53 -7 3
-11 -3 -9 -16z"/>
<path d="M95 1448 c2 -24 4 -49 4 -55 1 -7 6 -13 12 -13 6 0 9 14 6 35 -3 22
-1 35 7 35 6 0 3 7 -6 14 -10 7 -15 16 -11 19 3 4 1 7 -5 7 -6 0 -9 -16 -7
-42z"/>
<path d="M497 1474 c4 -12 3 -15 -5 -10 -8 5 -12 -2 -11 -21 1 -17 3 -21 6
-10 2 9 9 15 14 12 5 -4 9 3 9 14 0 11 -4 23 -10 26 -6 4 -7 -1 -3 -11z"/>
<path d="M1337 1483 c-4 -3 -7 -11 -7 -17 0 -6 5 -5 12 2 6 6 9 14 7 17 -3 3
-9 2 -12 -2z"/>
<path d="M355 1471 c-3 -5 -1 -12 5 -16 5 -3 10 1 10 9 0 18 -6 21 -15 7z"/>
<path d="M1875 1470 c-8 -13 3 -30 18 -29 9 0 9 2 0 5 -7 3 -9 12 -6 20 6 16
-3 19 -12 4z"/>
<path d="M1950 1476 c0 -2 7 -6 15 -10 8 -3 15 -1 15 4 0 6 -7 10 -15 10 -8 0
-15 -2 -15 -4z"/>
<path d="M1 1454 c0 -11 3 -14 6 -6 3 7 2 16 -1 19 -3 4 -6 -2 -5 -13z"/>
<path d="M377 1439 c-6 -21 28 -89 43 -89 5 0 14 -2 22 -5 14 -6 52 48 41 59
-12 12 -23 6 -23 -13 0 -25 -28 -35 -47 -15 -14 14 -14 16 7 21 16 4 18 8 9
14 -8 4 -20 3 -28 -4 -12 -10 -13 -8 -8 15 4 15 3 29 -2 32 -5 3 -11 -3 -14
-15z"/>
<path d="M565 1441 c-3 -5 -2 -12 3 -15 5 -3 9 1 9 9 0 17 -3 19 -12 6z"/>
<path d="M1981 1436 c-9 -10 -8 -16 4 -26 13 -11 15 -8 15 14 0 30 -3 32 -19
12z"/>
<path d="M125 1430 c-3 -5 -2 -10 4 -10 5 0 13 5 16 10 3 6 2 10 -4 10 -5 0
-13 -4 -16 -10z"/>
<path d="M1575 1430 c-3 -5 1 -10 9 -10 8 0 18 5 21 10 3 6 -1 10 -9 10 -8 0
-18 -4 -21 -10z"/>
<path d="M1718 1433 c-10 -2 -18 -9 -18 -14 0 -6 8 -5 20 1 11 6 20 13 20 15
0 3 -1 4 -2 4 -2 -1 -11 -3 -20 -6z"/>
<path d="M1826 1421 c4 -9 7 -23 8 -32 0 -9 6 -15 13 -12 7 3 13 0 13 -7 0 -6
5 -8 10 -5 6 4 8 10 5 15 -3 5 -1 11 5 15 17 10 11 25 -10 25 -11 0 -20 4 -20
8 0 5 -7 9 -15 9 -11 0 -14 -6 -9 -16z"/>
<path d="M0 1414 c0 -8 5 -12 10 -9 6 4 8 11 5 16 -9 14 -15 11 -15 -7z"/>
<path d="M1616 1411 c-3 -5 1 -11 9 -14 9 -4 12 -1 8 9 -6 16 -10 17 -17 5z"/>
<path d="M1906 1413 c-14 -14 -5 -39 14 -40 13 -1 20 4 20 17 0 18 -23 34 -34
23z"/>
<path d="M30 1394 c-19 -7 -27 -13 -17 -13 11 -1 15 -6 11 -12 -3 -6 5 -4 18
5 14 9 28 13 31 9 4 -3 7 -1 7 5 0 18 -13 19 -50 6z"/>
<path d="M130 1400 c0 -5 5 -10 10 -10 6 0 10 5 10 10 0 6 -4 10 -10 10 -5 0
-10 -4 -10 -10z"/>
<path d="M1355 1399 c-4 -6 -5 -12 -2 -15 2 -3 7 2 10 11 7 17 1 20 -8 4z"/>
<path d="M172 1383 c8 -10 17 -23 19 -30 3 -7 14 -2 29 15 13 15 20 24 16 20
-5 -4 -15 -3 -23 4 -11 8 -12 7 -7 -6 3 -9 1 -16 -5 -16 -6 0 -11 4 -11 9 0 5
-8 12 -17 15 -15 6 -16 5 -1 -11z"/>
<path d="M1720 1375 c0 -8 2 -15 4 -15 2 0 6 7 10 15 3 8 1 15 -4 15 -6 0 -10
-7 -10 -15z"/>
<path d="M145 1370 c-3 -5 -1 -10 4 -10 6 0 11 5 11 10 0 6 -2 10 -4 10 -3 0
-8 -4 -11 -10z"/>
<path d="M570 1370 c0 -5 4 -10 9 -10 6 0 13 5 16 10 3 6 -1 10 -9 10 -9 0
-16 -4 -16 -10z"/>
<path d="M1980 1370 c-13 -8 -12 -10 3 -10 9 0 17 5 17 10 0 12 -1 12 -20 0z"/>
<path d="M301 1356 c-9 -10 -6 -12 14 -8 29 5 31 8 11 15 -8 3 -19 0 -25 -7z"/>
<path d="M1765 1360 c-3 -5 -1 -10 4 -10 6 0 11 5 11 10 0 6 -2 10 -4 10 -3 0
-8 -4 -11 -10z"/>
<path d="M1910 1350 c0 -11 -5 -20 -12 -20 -6 0 -9 -3 -6 -6 8 -7 48 14 48 25
0 5 -7 11 -15 15 -10 4 -15 -1 -15 -14z"/>
<path d="M489 1352 c-1 -4 -1 -10 -1 -13 1 -4 -14 -10 -33 -13 -43 -8 -47 -30
-5 -24 16 2 31 1 32 -4 2 -4 10 6 20 21 14 25 14 30 2 35 -8 3 -15 2 -15 -2z"/>
<path d="M111 1334 c0 -11 3 -14 6 -6 3 7 2 16 -1 19 -3 4 -6 -2 -5 -13z"/>
<path d="M338 1339 c-16 -9 -16 -11 3 -30 11 -11 25 -17 31 -13 7 5 2 11 -13
16 -19 7 -21 11 -9 18 20 12 9 21 -12 9z"/>
<path d="M1665 1339 c-10 -15 3 -25 16 -12 7 7 7 13 1 17 -6 3 -14 1 -17 -5z"/>
<path d="M1518 1333 c6 -2 12 -11 12 -19 0 -9 4 -13 10 -9 14 9 0 35 -19 34
-10 0 -11 -2 -3 -6z"/>
<path d="M1551 1336 c12 -10 59 -15 59 -6 0 5 -14 10 -32 10 -17 0 -29 -2 -27
-4z"/>
<path d="M1790 1330 c-13 -8 -12 -10 3 -10 9 0 17 5 17 10 0 12 -1 12 -20 0z"/>
<path d="M1850 1330 c0 -5 4 -10 9 -10 6 0 13 5 16 10 3 6 -1 10 -9 10 -9 0
-16 -4 -16 -10z"/>
<path d="M1943 1323 c-28 -19 -30 -42 -3 -40 11 1 20 8 20 17 0 9 5 21 12 28
17 17 -3 14 -29 -5z"/>
<path d="M1741 1300 c9 -24 17 -30 37 -29 16 1 20 3 10 6 -9 2 -19 15 -22 29
-4 13 -13 24 -21 24 -11 0 -12 -6 -4 -30z"/>
<path d="M17 1314 c-8 -8 2 -55 14 -68 4 -5 11 3 15 18 7 28 -15 64 -29 50z"/>
<path d="M66 1306 c3 -8 12 -17 20 -20 12 -4 12 -2 4 14 -12 23 -32 27 -24 6z"/>
<path d="M553 1313 c-18 -7 -16 -61 2 -80 9 -8 18 -13 21 -10 3 2 -3 12 -12
22 -14 13 -14 19 -4 25 7 4 9 13 5 20 -4 7 -2 16 6 21 15 9 2 11 -18 2z"/>
<path d="M1500 1305 c0 -8 5 -15 10 -15 6 0 10 7 10 15 0 8 -4 15 -10 15 -5 0
-10 -7 -10 -15z"/>
<path d="M170 1294 c0 -7 5 -16 10 -19 6 -3 10 -1 10 5 0 6 4 9 9 6 5 -3 11 0
14 8 4 9 -2 14 -19 14 -13 0 -24 -6 -24 -14z"/>
<path d="M291 1278 c-5 -18 -10 -26 -11 -18 -2 18 -18 -17 -19 -40 0 -11 2
-11 10 3 6 9 14 15 19 12 9 -5 21 18 27 53 6 34 -15 26 -26 -10z"/>
<path d="M1890 1298 c0 -21 -36 -25 -43 -5 -2 6 -8 9 -12 5 -4 -4 0 -14 9 -23
13 -14 19 -14 40 -3 19 10 23 17 16 28 -8 13 -10 12 -10 -2z"/>
<path d="M1970 1295 c0 -8 5 -15 10 -15 6 0 10 7 10 15 0 8 -4 15 -10 15 -5 0
-10 -7 -10 -15z"/>
<path d="M1689 1283 c-13 -16 -12 -17 4 -4 9 7 17 15 17 17 0 8 -8 3 -21 -13z"/>
<path d="M1546 1281 c-4 -7 -5 -15 -2 -18 9 -9 19 4 14 18 -4 11 -6 11 -12 0z"/>
<path d="M1720 1280 c0 -5 5 -10 10 -10 6 0 10 5 10 10 0 6 -4 10 -10 10 -5 0
-10 -4 -10 -10z"/>
<path d="M60 1261 c-8 -16 -8 -21 2 -22 7 0 3 -4 -9 -9 -24 -10 -31 -34 -13
-45 6 -4 9 -1 8 7 -2 7 7 14 20 16 12 2 20 8 17 13 -4 5 -1 9 6 9 8 0 7 5 -2
17 -8 9 -12 18 -11 20 2 3 1 7 -1 10 -3 2 -10 -5 -17 -16z"/>
<path d="M415 1270 c-3 -5 -1 -10 4 -10 6 0 11 5 11 10 0 6 -2 10 -4 10 -3 0
-8 -4 -11 -10z"/>
<path d="M465 1270 c-3 -5 1 -10 9 -10 9 0 16 5 16 10 0 6 -4 10 -9 10 -6 0
-13 -4 -16 -10z"/>
<path d="M1951 1252 c-17 -31 -13 -40 5 -14 9 13 14 26 11 29 -3 2 -10 -4 -16
-15z"/>
<path d="M1978 1253 c-5 -21 0 -43 11 -43 8 0 8 46 0 55 -4 3 -9 -2 -11 -12z"/>
<path d="M420 1246 c0 -2 9 -6 20 -9 11 -3 18 -1 14 4 -5 9 -34 13 -34 5z"/>
<path d="M1400 1240 c0 -5 5 -10 11 -10 5 0 7 5 4 10 -3 6 -8 10 -11 10 -2 0
-4 -4 -4 -10z"/>
<path d="M1683 1234 c0 -7 9 -16 19 -20 29 -9 32 1 5 19 -20 13 -24 13 -24 1z"/>
<path d="M1815 1225 c0 -23 1 -24 13 -8 6 9 12 20 12 25 0 4 -6 8 -12 8 -7 0
-13 -11 -13 -25z"/>
<path d="M225 1230 c-3 -5 -1 -10 4 -10 6 0 11 5 11 10 0 6 -2 10 -4 10 -3 0
-8 -4 -11 -10z"/>
<path d="M495 1230 c3 -5 8 -10 11 -10 2 0 4 5 4 10 0 6 -5 10 -11 10 -5 0 -7
-4 -4 -10z"/>
<path d="M982 1224 c10 -10 20 -16 22 -13 3 3 -5 11 -17 18 -21 13 -21 12 -5
-5z"/>
<path d="M106 1214 c-4 -10 -1 -23 6 -31 11 -11 13 -9 13 12 -2 32 -11 41 -19
19z"/>
<path d="M1536 1217 c3 -10 9 -15 12 -12 3 3 0 11 -7 18 -10 9 -11 8 -5 -6z"/>
<path d="M343 1208 c-4 -7 -8 -15 -8 -18 0 -3 -6 -14 -13 -25 -12 -20 -12 -20
-33 4 -16 20 -24 23 -37 14 -9 -5 -18 -21 -20 -34 -2 -18 -1 -20 7 -10 12 18
52 25 48 9 -5 -26 29 -12 52 21 15 21 26 30 29 23 2 -7 -3 -21 -12 -31 -9 -10
-16 -23 -16 -29 0 -15 19 -16 21 -2 1 6 2 15 3 22 0 6 7 13 15 16 10 3 12 0 8
-12 -7 -17 21 -58 34 -50 10 6 40 -51 32 -60 -4 -3 -14 -6 -24 -6 -17 0 -33
-25 -24 -40 6 -10 -30 -92 -37 -85 -3 3 -8 -1 -11 -10 -4 -8 -2 -15 4 -15 5 0
7 -10 4 -22 -11 -50 -11 -73 1 -97 7 -13 11 -28 8 -33 -3 -4 2 -11 10 -14 9
-3 16 -14 16 -23 0 -10 3 -21 7 -25 4 -4 8 -13 9 -19 0 -7 2 -20 2 -29 1 -11
10 -18 22 -18 13 0 26 -10 33 -27 7 -16 21 -41 31 -56 16 -23 17 -32 7 -54
-14 -31 -9 -39 12 -18 21 21 30 19 22 -5 -4 -12 -2 -20 5 -20 6 0 8 5 5 10 -5
7 9 10 38 8 25 -2 45 -7 44 -12 -1 -5 4 -11 11 -13 7 -3 11 1 10 9 -2 7 3 11
12 9 8 -2 27 -4 42 -5 28 -1 49 -26 23 -26 -8 0 -15 -6 -15 -14 0 -8 -7 -17
-16 -20 -18 -7 -10 -26 12 -26 8 0 14 9 14 21 0 11 5 17 10 14 6 -3 10 -1 10
5 0 6 5 8 11 4 8 -5 8 -1 0 14 -15 29 -14 32 14 32 19 0 23 -4 18 -17 -5 -14
-2 -13 16 4 17 16 32 20 50 17 22 -5 29 -1 40 23 26 55 29 80 16 107 -19 36
-18 146 0 146 9 0 12 -6 8 -17 -4 -11 -3 -14 5 -9 7 4 12 1 12 -8 0 -9 5 -16
10 -16 12 0 12 2 1 33 -6 14 -18 28 -28 31 -10 3 -23 16 -28 28 -8 17 -17 22
-37 20 -16 -2 -28 1 -28 7 0 6 5 11 12 11 6 0 8 3 4 7 -4 5 -14 0 -21 -10 -8
-12 -15 -14 -20 -8 -4 8 -12 8 -25 1 -26 -14 -90 -13 -90 2 0 9 -3 9 -12 0 -7
-7 -16 -12 -20 -12 -15 0 -8 30 12 47 11 10 20 23 20 30 0 7 9 13 21 13 15 0
19 5 14 19 -7 22 24 39 37 19 4 -7 8 -9 8 -5 0 4 11 -4 25 -18 14 -14 29 -25
34 -25 11 0 1 62 -13 79 -6 8 -6 12 -1 9 7 -4 10 6 10 26 0 29 -2 32 -17 22
-9 -5 -21 -7 -25 -3 -4 5 -2 12 6 16 9 6 8 9 -7 13 -18 5 -52 58 -52 81 0 6
-7 19 -17 29 -15 17 -15 18 3 18 10 1 2 7 -20 15 -21 7 -43 12 -50 10 -6 -2
-40 -6 -74 -9 -58 -5 -63 -4 -50 11 11 15 11 16 -5 10 -10 -4 -21 -7 -23 -7
-3 0 -3 -4 0 -9 3 -4 -17 -8 -44 -8 -27 1 -46 5 -43 10 6 11 -26 47 -43 47 -7
0 -16 -6 -21 -12z m227 -108 c0 -5 -4 -10 -9 -10 -6 0 -13 5 -16 10 -3 6 1 10
9 10 9 0 16 -4 16 -10z m50 0 c0 -13 -12 -19 -26 -13 -21 8 -17 19 6 19 11 0
20 -3 20 -6z m-90 -40 c0 -5 -9 -10 -20 -10 -11 0 -20 5 -20 10 0 6 9 10 20
10 11 0 20 -4 20 -10z m210 -390 c0 -5 -5 -10 -11 -10 -5 0 -7 5 -4 10 3 6 8
10 11 10 2 0 4 -4 4 -10z m-70 -80 c11 0 6 -33 -6 -37 -6 -2 -18 3 -28 10 -22
16 -12 42 11 33 8 -3 18 -6 23 -6z m243 -60 c-7 -28 -13 -25 -13 6 0 14 4 23
9 20 5 -3 7 -15 4 -26z"/>
<path d="M520 1208 c0 -4 4 -8 9 -8 6 0 12 4 15 8 3 5 -1 9 -9 9 -8 0 -15 -4
-15 -9z"/>
<path d="M157 1203 c-10 -9 -9 -23 1 -23 5 0 9 7 9 15 0 17 -1 18 -10 8z"/>
<path d="M285 1200 c3 -5 10 -10 16 -10 5 0 9 5 9 10 0 6 -7 10 -16 10 -8 0
-12 -4 -9 -10z"/>
<path d="M441 1194 c0 -11 3 -14 6 -6 3 7 2 16 -1 19 -3 4 -6 -2 -5 -13z"/>
<path d="M1380 1200 c0 -5 5 -10 11 -10 5 0 7 5 4 10 -3 6 -8 10 -11 10 -2 0
-4 -4 -4 -10z"/>
<path d="M1581 1186 c-16 -19 6 -34 22 -16 9 10 9 11 0 6 -7 -4 -13 -3 -13 3
0 5 6 12 13 14 7 4 8 6 1 6 -6 1 -17 -5 -23 -13z"/>
<path d="M1690 1190 c0 -5 5 -10 11 -10 5 0 7 5 4 10 -3 6 -8 10 -11 10 -2 0
-4 -4 -4 -10z"/>
<path d="M1843 1185 c0 -17 6 -18 25 -6 11 7 10 10 -3 15 -22 8 -22 8 -22 -9z"/>
<path d="M191 1176 c-11 -13 -11 -20 -3 -28 15 -15 24 -5 20 23 -3 21 -4 21
-17 5z"/>
<path d="M1720 1181 c0 -6 4 -13 10 -16 6 -3 7 1 4 9 -7 18 -14 21 -14 7z"/>
<path d="M1951 1164 c0 -11 3 -14 6 -6 3 7 2 16 -1 19 -3 4 -6 -2 -5 -13z"/>
<path d="M52 1154 c-7 -8 -10 -19 -7 -25 4 -5 4 -18 0 -27 -7 -14 -9 -13 -15
8 -7 22 -8 21 -9 -12 -1 -20 4 -40 10 -43 17 -11 38 27 32 58 -6 30 -2 32 28
17 13 -7 19 -7 19 0 0 5 -4 10 -10 10 -5 0 -10 7 -10 15 0 19 -21 19 -38 -1z"/>
<path d="M1399 1152 c14 -10 6 -36 -9 -27 -4 3 -10 -2 -14 -10 -7 -20 -26 -19
-26 1 0 8 -5 12 -10 9 -6 -4 -8 -11 -4 -16 8 -14 -24 -59 -42 -59 -9 0 -30
-10 -47 -22 -21 -15 -32 -18 -35 -10 -2 8 -9 7 -20 -5 -15 -15 -17 -15 -20 -1
-2 9 -13 16 -29 16 l-25 0 31 -20 c35 -22 37 -30 16 -51 -8 -8 -11 -18 -7 -22
4 -5 0 -6 -9 -3 -13 5 -15 1 -12 -20 4 -21 2 -24 -6 -12 -7 9 -11 10 -11 3 0
-20 19 -25 35 -9 8 8 15 24 15 35 0 12 4 21 8 21 17 0 32 -25 32 -52 0 -16 7
-31 15 -34 8 -4 15 -12 15 -20 0 -8 4 -14 9 -14 5 0 12 -11 15 -25 4 -14 13
-25 22 -25 8 0 12 -5 9 -10 -5 -7 -11 -8 -19 -1 -7 6 -17 6 -26 1 -8 -5 -21
-5 -32 1 -12 6 -18 6 -18 -1 0 -5 -4 -10 -9 -10 -4 0 -7 11 -6 24 2 17 -1 23
-10 19 -8 -2 -11 -11 -8 -19 3 -9 -1 -14 -12 -14 -12 0 -15 5 -10 19 3 11 2
22 -4 25 -5 3 -7 15 -4 26 4 16 0 20 -22 20 -18 0 -28 -6 -32 -20 -3 -11 -8
-18 -12 -16 -4 3 -13 0 -21 -5 -12 -7 -13 -11 -2 -18 11 -7 11 -11 0 -22 -8
-8 -17 -22 -20 -31 -4 -9 -17 -22 -29 -28 -12 -7 -19 -8 -15 -2 3 6 2 13 -4
17 -12 8 -13 -15 -1 -34 10 -15 -12 -59 -36 -74 -19 -12 -16 -22 12 -48 27
-26 35 -65 11 -56 -12 5 -25 -18 -26 -45 0 -15 28 4 33 23 7 27 26 23 38 -8 6
-15 15 -31 21 -34 6 -4 7 -12 3 -19 -6 -10 -9 -10 -15 0 -6 9 -12 10 -26 1
-17 -9 -17 -11 6 -12 14 -1 32 -1 41 0 11 1 15 -7 13 -29 -2 -25 1 -30 16 -25
11 3 20 0 24 -10 6 -17 56 -21 56 -4 0 5 -4 7 -10 4 -12 -7 -12 21 -1 50 6 16
18 20 57 21 27 0 58 4 68 9 14 6 17 5 12 -3 -5 -8 0 -12 14 -12 12 0 18 5 15
10 -3 6 -3 10 2 11 4 0 18 2 30 5 14 2 22 -1 20 -7 -1 -6 4 -14 11 -16 6 -3
12 0 12 6 0 15 27 14 33 -1 2 -8 8 -9 13 -4 5 5 4 11 -3 13 -7 3 -13 9 -13 15
0 6 7 7 16 4 14 -5 15 -4 4 9 -11 13 -10 14 5 8 15 -5 17 -3 12 10 -7 19 11
67 25 67 4 0 8 7 8 15 0 8 14 34 30 57 17 22 30 48 31 57 0 12 3 11 9 -4 8
-19 9 -19 9 3 1 22 21 32 21 10 0 -6 2 -9 5 -6 3 3 1 17 -4 31 -9 22 -7 29 12
42 12 8 18 15 13 15 -5 0 -3 6 3 14 11 13 7 56 -8 81 -3 6 -6 15 -6 20 -2 19
-19 50 -34 61 -13 10 -13 14 -2 28 12 14 12 16 -1 11 -11 -4 -20 3 -29 24 -8
17 -17 31 -21 31 -5 0 -8 9 -8 20 0 11 -6 20 -14 20 -7 0 -16 13 -19 28 -4 18
-12 28 -24 28 -10 1 -27 4 -38 8 -14 6 -16 5 -6 -2z m-373 -578 c-3 -8 -1 -24
4 -35 6 -10 8 -19 6 -19 -11 0 -26 40 -20 54 3 9 8 16 11 16 3 0 2 -7 -1 -16z
m84 -74 c0 -5 -4 -10 -10 -10 -5 0 -10 5 -10 10 0 6 5 10 10 10 6 0 10 -4 10
-10z m150 0 c0 -5 -4 -10 -10 -10 -5 0 -10 5 -10 10 0 6 5 10 10 10 6 0 10 -4
10 -10z"/>
<path d="M1510 1149 c0 -5 5 -7 10 -4 6 3 10 8 10 11 0 2 -4 4 -10 4 -5 0 -10
-5 -10 -11z"/>
<path d="M1826 1145 c-3 -8 -1 -15 4 -15 6 0 10 7 10 15 0 8 -2 15 -4 15 -2 0
-6 -7 -10 -15z"/>
<path d="M1870 1141 c0 -5 5 -13 10 -16 6 -3 10 -2 10 4 0 5 -4 13 -10 16 -5
3 -10 2 -10 -4z"/>
<path d="M150 1125 c6 -8 9 -19 5 -25 -3 -5 -1 -10 4 -10 6 0 11 4 11 9 0 18
-12 41 -22 41 -6 0 -5 -6 2 -15z"/>
<path d="M800 1125 c0 -8 2 -15 4 -15 2 0 6 7 10 15 3 8 1 15 -4 15 -6 0 -10
-7 -10 -15z"/>
<path d="M1580 1131 c0 -6 4 -13 10 -16 6 -3 7 1 4 9 -7 18 -14 21 -14 7z"/>
<path d="M1960 1130 c0 -5 5 -10 11 -10 5 0 7 5 4 10 -3 6 -8 10 -11 10 -2 0
-4 -4 -4 -10z"/>
<path d="M1983 1122 c-6 -11 -8 -24 -3 -33 12 -19 22 -6 18 25 -3 25 -4 25
-15 8z"/>
<path d="M965 1120 c-19 -8 -19 -9 3 -9 12 -1 22 4 22 9 0 6 -1 10 -2 9 -2 0
-12 -4 -23 -9z"/>
<path d="M1936 1122 c-4 -7 -2 -12 3 -12 6 0 11 -4 11 -10 0 -5 -7 -10 -15
-10 -21 0 -29 -25 -16 -47 6 -11 11 -13 11 -5 0 7 5 10 10 7 6 -4 8 -11 5 -16
-4 -5 1 -9 11 -9 14 0 15 -2 3 -17 -13 -15 -12 -15 7 -3 21 13 21 14 3 33 -12
13 -15 24 -10 31 6 7 4 23 -3 41 -8 19 -15 25 -20 17z"/>
<path d="M250 1110 c-12 -7 -12 -12 -2 -22 9 -9 12 -8 13 8 0 18 1 18 9 -1 7
-16 9 -17 9 -3 1 22 -11 29 -29 18z"/>
<path d="M916 1111 c-4 -7 -5 -15 -2 -18 9 -9 19 4 14 18 -4 11 -6 11 -12 0z"/>
<path d="M1681 1104 c0 -11 3 -14 6 -6 3 7 2 16 -1 19 -3 4 -6 -2 -5 -13z"/>
<path d="M1731 1104 c0 -11 3 -14 6 -6 3 7 2 16 -1 19 -3 4 -6 -2 -5 -13z"/>
<path d="M198 1085 c-3 -14 -3 -23 0 -20 3 2 11 0 19 -6 18 -15 17 10 -1 34
-13 16 -14 16 -18 -8z"/>
<path d="M820 1100 c0 -5 7 -10 16 -10 8 0 12 5 9 10 -3 6 -10 10 -16 10 -5 0
-9 -4 -9 -10z"/>
<path d="M1801 1094 c0 -11 3 -14 6 -6 3 7 2 16 -1 19 -3 4 -6 -2 -5 -13z"/>
<path d="M780 1090 c-12 -8 -10 -10 8 -10 13 0 20 4 17 10 -7 12 -6 12 -25 0z"/>
<path d="M1087 1093 c-4 -3 -7 -11 -7 -17 0 -6 5 -5 12 2 6 6 9 14 7 17 -3 3
-9 2 -12 -2z"/>
<path d="M109 1083 c0 -5 -2 -17 -4 -28 -5 -25 5 -66 14 -61 12 8 12 66 0 66
-8 0 -8 4 1 15 9 10 9 15 1 15 -6 0 -11 -3 -12 -7z"/>
<path d="M385 1080 c3 -5 8 -10 11 -10 2 0 4 5 4 10 0 6 -5 10 -11 10 -5 0 -7
-4 -4 -10z"/>
<path d="M880 1075 c0 -9 -4 -13 -10 -10 -5 3 -10 1 -10 -6 0 -9 -3 -9 -14 0
-9 7 -17 8 -20 3 -9 -15 23 -23 44 -12 26 14 33 13 26 -5 -3 -10 1 -15 14 -15
10 0 22 9 25 20 7 24 23 26 31 5 9 -23 24 -18 20 8 -3 22 -29 31 -51 17 -13
-8 -27 -7 -42 3 -9 5 -13 3 -13 -8z"/>
<path d="M1546 1077 c3 -10 9 -15 12 -12 3 3 0 11 -7 18 -10 9 -11 8 -5 -6z"/>
<path d="M1850 1080 c0 -5 5 -10 10 -10 6 0 10 5 10 10 0 6 -4 10 -10 10 -5 0
-10 -4 -10 -10z"/>
<path d="M1015 1070 c-3 -5 1 -10 10 -10 9 0 13 5 10 10 -3 6 -8 10 -10 10 -2
0 -7 -4 -10 -10z"/>
<path d="M71 1054 c0 -11 3 -14 6 -6 3 7 2 16 -1 19 -3 4 -6 -2 -5 -13z"/>
<path d="M1805 1060 c3 -5 8 -10 11 -10 2 0 4 5 4 10 0 6 -5 10 -11 10 -5 0
-7 -4 -4 -10z"/>
<path d="M340 1044 c0 -8 5 -12 10 -9 6 4 8 11 5 16 -9 14 -15 11 -15 -7z"/>
<path d="M5 1010 c1 -25 3 -53 4 -62 0 -10 5 -18 10 -18 12 0 21 49 10 56 -4
2 -6 10 -3 17 2 7 -2 21 -10 32 -13 18 -14 16 -11 -25z"/>
<path d="M1045 1040 c-3 -5 -1 -10 4 -10 6 0 11 5 11 10 0 6 -2 10 -4 10 -3 0
-8 -4 -11 -10z"/>
<path d="M1871 1034 c0 -11 3 -14 6 -6 3 7 2 16 -1 19 -3 4 -6 -2 -5 -13z"/>
<path d="M206 1026 c3 -9 11 -16 16 -16 13 0 5 23 -10 28 -7 2 -10 -2 -6 -12z"/>
<path d="M273 1032 c-9 -6 -10 -17 -4 -39 5 -17 7 -34 3 -37 -3 -3 2 -6 11 -6
10 0 17 5 17 10 0 6 -4 10 -10 10 -14 0 -13 47 2 56 6 4 17 -1 25 -11 7 -11
13 -14 13 -9 0 26 -34 41 -57 26z"/>
<path d="M1660 1025 c7 -9 15 -13 17 -11 7 7 -7 26 -19 26 -6 0 -6 -6 2 -15z"/>
<path d="M155 1020 c-3 -5 -1 -10 4 -10 6 0 11 5 11 10 0 6 -2 10 -4 10 -3 0
-8 -4 -11 -10z"/>
<path d="M1825 1021 c-3 -5 -1 -12 5 -16 5 -3 10 1 10 9 0 18 -6 21 -15 7z"/>
<path d="M50 1009 c0 -15 18 -19 23 -6 3 8 -1 14 -9 14 -8 0 -14 -4 -14 -8z"/>
<path d="M938 989 c6 -39 17 -44 18 -9 1 16 -4 31 -11 33 -7 3 -10 -5 -7 -24z"/>
<path d="M850 999 c0 -5 5 -7 10 -4 6 3 10 8 10 11 0 2 -4 4 -10 4 -5 0 -10
-5 -10 -11z"/>
<path d="M1796 993 c-6 -14 -5 -15 5 -6 7 7 10 15 7 18 -3 3 -9 -2 -12 -12z"/>
<path d="M76 984 c-8 -22 -8 -26 3 -19 5 3 12 1 16 -5 3 -5 2 -10 -4 -10 -5 0
-15 -16 -21 -35 -6 -19 -16 -35 -21 -35 -6 0 -8 -4 -5 -9 3 -5 -1 -14 -9 -21
-10 -9 -15 -9 -15 -1 0 6 -4 11 -10 11 -5 0 -10 -9 -10 -20 0 -11 6 -20 13
-20 17 0 57 42 57 59 0 7 9 25 19 40 12 17 17 36 14 54 -6 30 -18 35 -27 11z"/>
<path d="M899 987 c-16 -12 -15 -37 2 -37 6 0 8 4 5 9 -4 5 -1 11 5 13 7 2 10
9 8 15 -3 9 -8 8 -20 0z"/>
<path d="M1000 996 c0 -9 30 -14 35 -6 4 6 -3 10 -14 10 -12 0 -21 -2 -21 -4z"/>
<path d="M1975 990 c-3 -5 -2 -10 4 -10 5 0 13 5 16 10 3 6 2 10 -4 10 -5 0
-13 -4 -16 -10z"/>
<path d="M123 975 c-3 -9 -3 -19 1 -22 3 -4 6 1 6 10 0 19 15 23 25 7 4 -6 11
-8 16 -5 5 4 9 2 9 -4 0 -5 8 -8 18 -7 9 2 20 -2 24 -8 5 -7 8 -5 8 6 0 11 5
15 15 12 11 -5 13 -2 9 10 -7 18 -24 22 -24 6 0 -5 -12 -10 -26 -10 -14 0 -23
4 -19 10 3 6 1 10 -4 10 -6 0 -11 -5 -11 -12 0 -9 -3 -9 -12 0 -16 16 -27 15
-35 -3z"/>
<path d="M1910 980 c0 -5 7 -7 15 -4 8 4 15 8 15 10 0 2 -7 4 -15 4 -8 0 -15
-4 -15 -10z"/>
<path d="M1585 970 c3 -5 8 -10 11 -10 2 0 4 5 4 10 0 6 -5 10 -11 10 -5 0 -7
-4 -4 -10z"/>
<path d="M1820 971 c0 -6 5 -13 10 -16 6 -3 10 1 10 9 0 9 -4 16 -10 16 -5 0
-10 -4 -10 -9z"/>
<path d="M1623 962 c-9 -5 -9 -11 0 -22 17 -21 48 -25 41 -5 -3 8 -11 12 -18
8 -6 -4 -5 1 3 10 11 14 11 17 0 17 -8 0 -19 -4 -26 -8z"/>
<path d="M1880 960 c0 -5 5 -10 10 -10 6 0 10 5 10 10 0 6 -4 10 -10 10 -5 0
-10 -4 -10 -10z"/>
<path d="M1955 960 c3 -5 8 -10 11 -10 2 0 4 5 4 10 0 6 -5 10 -11 10 -5 0 -7
-4 -4 -10z"/>
<path d="M1930 945 c0 -8 -5 -15 -11 -15 -5 0 -7 -4 -4 -10 11 -17 21 -11 23
15 1 14 0 25 -3 25 -3 0 -5 -7 -5 -15z"/>
<path d="M50 940 c0 -5 5 -10 11 -10 5 0 7 5 4 10 -3 6 -8 10 -11 10 -2 0 -4
-4 -4 -10z"/>
<path d="M1980 939 c0 -5 5 -7 10 -4 6 3 10 8 10 11 0 2 -4 4 -10 4 -5 0 -10
-5 -10 -11z"/>
<path d="M200 909 c5 -16 7 -36 4 -44 -5 -11 -74 -30 -139 -38 -11 -1 -24 -8
-28 -15 -5 -7 -12 -10 -16 -7 -5 2 -11 -4 -14 -14 -3 -14 0 -17 15 -13 11 2
22 11 25 18 3 8 15 13 27 13 17 -1 17 -2 3 -6 -9 -2 -15 -9 -11 -14 3 -6 0
-16 -6 -24 -9 -11 -9 -15 -1 -15 6 0 11 5 11 10 0 6 4 10 9 10 5 0 7 -9 4 -20
-3 -11 -9 -17 -14 -14 -13 8 -11 -20 3 -34 9 -9 8 -12 -5 -12 -15 0 -22 11
-18 33 2 9 -28 41 -33 36 -2 -2 -7 -24 -10 -49 -6 -43 -6 -44 8 -20 14 23 15
23 17 5 1 -11 1 -25 0 -31 -1 -7 10 -15 24 -18 14 -4 25 -11 25 -17 0 -8 -5
-7 -15 1 -9 8 -15 9 -15 2 0 -16 14 -22 39 -15 20 5 21 7 6 29 -14 22 -14 39
1 112 4 18 7 20 17 10 17 -15 19 -48 3 -42 -6 2 -12 -4 -13 -16 -2 -28 43 -28
50 0 3 11 1 20 -4 20 -12 0 -6 35 10 54 14 17 7 21 -26 17 -7 -1 -13 4 -13 12
0 16 41 17 52 2 4 -6 8 -2 8 8 0 10 3 16 8 14 4 -2 18 7 32 21 14 13 19 21 12
17 -8 -4 -12 -2 -11 6 4 19 -11 59 -21 59 -5 0 -5 -14 0 -31z"/>
<path d="M985 930 c3 -5 8 -10 11 -10 2 0 4 5 4 10 0 6 -5 10 -11 10 -5 0 -7
-4 -4 -10z"/>
<path d="M1735 930 c3 -5 8 -10 11 -10 2 0 4 5 4 10 0 6 -5 10 -11 10 -5 0 -7
-4 -4 -10z"/>
<path d="M1810 930 c0 -5 7 -10 16 -10 8 0 12 5 9 10 -3 6 -10 10 -16 10 -5 0
-9 -4 -9 -10z"/>
<path d="M332 910 c0 -14 2 -19 5 -12 2 6 2 18 0 25 -3 6 -5 1 -5 -13z"/>
<path d="M885 913 c4 -14 2 -23 -4 -23 -6 0 -11 5 -11 10 0 6 -4 10 -9 10 -5
0 -8 -11 -8 -25 0 -14 3 -25 8 -25 5 0 9 5 9 11 0 5 4 8 9 5 14 -9 22 24 11
42 -9 14 -10 13 -5 -5z"/>
<path d="M930 920 c0 -5 7 -10 15 -10 8 0 15 5 15 10 0 6 -7 10 -15 10 -8 0
-15 -4 -15 -10z"/>
<path d="M1951 906 c-1 -16 2 -26 6 -23 3 4 13 1 22 -6 14 -10 14 -10 3 5 -8
9 -10 23 -6 29 4 7 3 9 -4 5 -5 -3 -13 0 -15 6 -3 7 -6 0 -6 -16z"/>
<path d="M3 905 c-3 -9 -3 -19 1 -22 3 -4 6 1 6 11 0 9 5 14 10 11 6 -3 10 -1
10 4 0 17 -20 13 -27 -4z"/>
<path d="M285 911 c-3 -5 -1 -12 5 -16 5 -3 10 1 10 9 0 18 -6 21 -15 7z"/>
<path d="M955 900 c-17 -19 -17 -20 8 -31 27 -12 27 -29 1 -29 -9 0 -24 -10
-33 -22 -14 -16 -20 -18 -26 -8 -5 9 -4 11 3 6 7 -4 12 -3 12 3 0 17 -18 21
-24 5 -18 -48 4 -55 42 -14 22 24 23 24 17 3 -3 -12 -1 -24 5 -28 6 -3 8 -11
5 -16 -4 -5 -2 -9 3 -9 12 0 24 29 16 41 -3 5 0 9 5 9 6 0 11 7 11 15 0 8 5
15 10 15 18 0 11 15 -12 25 -16 7 -22 17 -20 33 4 27 0 28 -23 2z"/>
<path d="M1042 892 c-11 -25 -11 -25 4 -10 9 9 15 21 13 27 -2 6 -10 -2 -17
-17z"/>
<path d="M1860 910 c0 -5 5 -10 10 -10 6 0 10 5 10 10 0 6 -4 10 -10 10 -5 0
-10 -4 -10 -10z"/>
<path d="M120 901 c0 -5 11 -11 25 -13 20 -4 23 -3 14 8 -13 16 -39 19 -39 5z"/>
<path d="M1610 895 c0 -8 1 -15 3 -15 1 0 17 -4 35 -9 24 -7 32 -6 32 3 0 9
-9 12 -25 8 -18 -3 -25 0 -25 12 0 9 -4 16 -10 16 -5 0 -10 -7 -10 -15z"/>
<path d="M1796 875 c-3 -8 -1 -15 4 -15 6 0 10 7 10 15 0 8 -2 15 -4 15 -2 0
-6 -7 -10 -15z"/>
<path d="M84 859 c-19 -22 -19 -22 6 -14 32 10 36 13 24 25 -7 7 -17 3 -30
-11z"/>
<path d="M312 872 c-10 -3 -9 -8 4 -23 16 -18 34 -17 34 2 0 6 -4 8 -9 4 -5
-3 -11 1 -13 8 -2 8 -9 12 -16 9z"/>
<path d="M760 865 c-8 -9 -8 -15 -2 -15 12 0 26 19 19 26 -2 2 -10 -2 -17 -11z"/>
<path d="M900 864 c0 -8 5 -12 10 -9 6 4 8 11 5 16 -9 14 -15 11 -15 -7z"/>
<path d="M1760 872 c0 -8 -5 -10 -12 -6 -10 5 -10 4 -1 -6 16 -17 35 -9 23 10
-7 11 -10 11 -10 2z"/>
<path d="M1913 863 c9 -9 19 -14 23 -11 10 10 -6 28 -24 28 -15 0 -15 -1 1
-17z"/>
<path d="M1161 844 c0 -11 3 -14 6 -6 3 7 2 16 -1 19 -3 4 -6 -2 -5 -13z"/>
<path d="M1880 850 c0 -5 5 -10 10 -10 6 0 10 5 10 10 0 6 -4 10 -10 10 -5 0
-10 -4 -10 -10z"/>
<path d="M1960 845 c-9 -10 -9 -15 -1 -15 6 0 11 5 11 11 0 6 7 9 15 5 8 -3
15 -1 15 4 0 15 -26 12 -40 -5z"/>
<path d="M775 840 c-3 -5 -1 -10 4 -10 6 0 11 5 11 10 0 6 -2 10 -4 10 -3 0
-8 -4 -11 -10z"/>
<path d="M865 840 c3 -5 8 -10 11 -10 2 0 4 5 4 10 0 6 -5 10 -11 10 -5 0 -7
-4 -4 -10z"/>
<path d="M1703 831 c-4 -15 -8 -19 -13 -11 -5 8 -10 8 -14 2 -3 -5 1 -12 9
-16 15 -5 42 31 30 42 -3 3 -8 -4 -12 -17z"/>
<path d="M1815 840 c-3 -5 -1 -10 6 -10 9 0 8 -4 -1 -15 -6 -8 -10 -20 -7 -27
4 -8 6 -7 6 4 1 9 5 19 10 22 5 4 7 -4 3 -16 -5 -21 -4 -22 12 -9 15 12 15 16
1 31 -8 9 -12 20 -8 23 3 4 1 7 -5 7 -6 0 -14 -4 -17 -10z"/>
<path d="M225 820 c-3 -5 -1 -10 4 -10 6 0 11 5 11 10 0 6 -2 10 -4 10 -3 0
-8 -4 -11 -10z"/>
<path d="M253 818 c4 -10 -2 -18 -16 -23 -20 -6 -20 -8 -4 -12 12 -3 16 -10
12 -21 -3 -9 -3 -13 1 -10 3 4 19 1 34 -7 25 -13 28 -13 26 2 -2 9 -8 19 -14
21 -7 2 -10 8 -7 13 4 5 -2 6 -11 2 -13 -5 -16 -2 -12 9 4 8 2 21 -4 29 -8 11
-9 11 -5 -3z"/>
<path d="M1210 814 c0 -12 7 -27 15 -34 20 -17 21 9 0 36 -14 19 -14 19 -15
-2z"/>
<path d="M695 810 c3 -5 10 -10 16 -10 5 0 9 5 9 10 0 6 -7 10 -16 10 -8 0
-12 -4 -9 -10z"/>
<path d="M310 798 c0 -7 9 -24 20 -38 l19 -25 -3 26 c-2 14 -6 31 -10 37 -10
16 -26 15 -26 0z"/>
<path d="M1633 789 c2 -8 7 -20 11 -28 7 -11 4 -13 -12 -9 -25 7 -29 -4 -7
-22 12 -10 17 -7 27 14 10 22 9 29 -5 43 -12 12 -15 13 -14 2z"/>
<path d="M1875 779 c3 -13 -1 -16 -12 -12 -11 4 -14 0 -11 -17 1 -13 9 -25 16
-28 8 -2 10 2 5 14 -4 12 -3 15 6 10 8 -5 14 -1 18 12 3 14 10 19 20 15 11 -4
14 -2 11 8 -3 8 -16 14 -30 14 -20 1 -25 -4 -23 -16z"/>
<path d="M1977 774 c3 -7 9 -14 14 -14 14 0 10 17 -5 23 -10 4 -13 1 -9 -9z"/>
<path d="M185 770 c6 -10 4 -12 -8 -7 -9 3 -18 0 -21 -9 -3 -8 -1 -14 4 -14 6
0 10 -9 10 -21 0 -14 4 -18 13 -12 6 4 21 7 32 5 18 -2 18 -1 -2 8 -15 6 -21
16 -18 29 2 11 -1 24 -7 27 -7 5 -8 2 -3 -6z"/>
<path d="M920 770 c-13 -9 -13 -11 0 -19 10 -7 17 -6 22 2 17 26 5 35 -22 17z"/>
<path d="M990 770 c0 -5 5 -10 10 -10 6 0 10 5 10 10 0 6 -4 10 -10 10 -5 0
-10 -4 -10 -10z"/>
<path d="M1817 749 c-12 -13 -16 -28 -11 -41 6 -21 7 -21 17 -2 8 14 17 64 12
64 0 0 -9 -9 -18 -21z"/>
<path d="M1719 724 c-9 -12 -10 -15 -1 -10 7 4 12 2 12 -5 0 -10 3 -10 12 -1
8 8 9 15 2 22 -8 8 -15 6 -25 -6z"/>
<path d="M1945 730 c-3 -5 -1 -10 4 -10 6 0 11 5 11 10 0 6 -2 10 -4 10 -3 0
-8 -4 -11 -10z"/>
<path d="M252 718 c-5 -7 -13 -23 -16 -35 -6 -18 -4 -21 14 -16 14 4 19 11 15
21 -3 8 0 21 6 28 7 8 7 14 1 14 -5 0 -14 -6 -20 -12z"/>
<path d="M330 715 c0 -7 30 -13 34 -7 3 4 -4 9 -15 9 -10 1 -19 0 -19 -2z"/>
<path d="M1983 703 c7 -29 -8 -39 -23 -16 -9 14 -10 15 -7 2 3 -9 0 -22 -6
-29 -9 -10 -9 -11 0 -6 6 3 14 2 18 -4 3 -5 -5 -14 -19 -20 -14 -5 -28 -20
-32 -34 -9 -36 2 -48 30 -34 25 11 28 34 7 47 -10 7 -10 9 1 14 21 7 40 -28
32 -60 -4 -16 -3 -24 3 -20 13 8 12 162 -1 174 -5 5 -7 -1 -3 -14z"/>
<path d="M280 688 c0 -20 -7 -29 -27 -36 -25 -9 -25 -11 -6 -11 20 -1 53 22
53 37 0 4 -5 14 -10 22 -8 12 -10 9 -10 -12z"/>
<path d="M1610 695 c0 -8 4 -15 10 -15 5 0 7 7 4 15 -4 8 -8 15 -10 15 -2 0
-4 -7 -4 -15z"/>
<path d="M1640 700 c0 -5 5 -10 10 -10 6 0 10 5 10 10 0 6 -4 10 -10 10 -5 0
-10 -4 -10 -10z"/>
<path d="M1900 690 c-9 -17 -8 -19 12 -11 26 9 36 31 14 31 -8 0 -20 -9 -26
-20z"/>
<path d="M1760 672 c0 -11 -6 -22 -14 -25 -17 -7 -10 -47 8 -44 6 1 10 -4 9
-10 -2 -7 4 -13 12 -13 21 0 19 7 -11 35 -15 14 -22 25 -15 25 6 0 14 0 19 0
4 0 7 -4 7 -8 0 -12 36 -46 51 -48 17 -3 0 33 -27 57 -20 18 -14 35 7 18 8 -7
14 -7 19 1 7 11 5 12 -22 14 -10 1 -24 5 -30 9 -9 6 -13 2 -13 -11z"/>
<path d="M1845 680 c-3 -5 3 -10 14 -10 12 0 21 5 21 10 0 6 -6 10 -14 10 -8
0 -18 -4 -21 -10z"/>
<path d="M1725 670 c-3 -5 -1 -10 4 -10 6 0 11 5 11 10 0 6 -2 10 -4 10 -3 0
-8 -4 -11 -10z"/>
<path d="M371 652 c-7 -14 -8 -23 -1 -27 5 -3 10 2 11 12 0 16 1 16 9 -2 6
-13 9 -15 9 -5 0 8 -3 21 -8 29 -7 11 -11 10 -20 -7z"/>
<path d="M2 634 c-2 -22 0 -24 12 -14 8 6 12 18 9 26 -8 22 -18 16 -21 -12z"/>
<path d="M125 650 c7 -12 -4 -54 -12 -46 -7 7 -33 -13 -33 -25 0 -5 9 -9 20
-9 11 0 20 -5 20 -11 0 -5 -5 -7 -11 -3 -7 4 -10 1 -7 -7 2 -8 17 -20 33 -28
24 -12 29 -11 37 3 5 9 18 16 28 16 10 0 21 4 25 10 3 5 13 7 23 4 13 -5 14
-4 3 4 -8 6 -12 19 -8 31 4 16 1 21 -13 21 -10 0 -21 -6 -24 -12 -3 -7 -3 -1
-1 14 2 15 6 32 10 38 3 5 -3 10 -14 10 -17 0 -20 -5 -17 -30 2 -17 -1 -30 -8
-30 -6 0 -4 -5 4 -10 8 -5 23 -7 33 -4 14 5 18 1 15 -13 -4 -24 -71 -29 -90
-6 -11 14 -10 15 8 9 17 -5 20 -2 18 16 -1 13 -3 24 -4 26 -2 1 -3 5 -4 10 -3
14 -17 32 -27 32 -6 0 -7 -5 -4 -10z"/>
<path d="M341 644 c0 -11 3 -14 6 -6 3 7 2 16 -1 19 -3 4 -6 -2 -5 -13z"/>
<path d="M1857 645 c-9 -6 -17 -20 -17 -29 0 -19 16 -22 23 -3 3 9 8 9 21 -3
16 -12 19 -12 29 5 16 28 19 51 5 37 -7 -7 -17 -8 -27 -2 -10 5 -23 3 -34 -5z"/>
<path d="M269 635 c-3 -2 -3 -20 -1 -40 3 -29 8 -35 28 -35 12 0 26 5 29 10 3
6 -1 10 -9 10 -9 0 -13 6 -10 14 3 7 -2 16 -11 20 -9 3 -13 10 -10 16 6 10 -7
14 -16 5z"/>
<path d="M1673 626 c0 -8 6 -12 14 -9 7 3 13 9 13 14 0 5 -6 9 -13 9 -8 0 -14
-6 -14 -14z"/>
<path d="M1590 620 c0 -5 5 -10 11 -10 5 0 7 5 4 10 -3 6 -8 10 -11 10 -2 0
-4 -4 -4 -10z"/>
<path d="M1617 608 c-3 -8 5 -14 20 -14 13 -1 23 -1 21 0 -2 1 -10 7 -19 14
-13 10 -18 10 -22 0z"/>
<path d="M1702 607 c-8 -10 -6 -13 11 -14 15 -2 18 0 8 6 -11 7 -11 9 0 14 8
3 9 6 3 6 -6 1 -16 -5 -22 -12z"/>
<path d="M20 600 c0 -5 4 -10 9 -10 6 0 13 5 16 10 3 6 -1 10 -9 10 -9 0 -16
-4 -16 -10z"/>
<path d="M353 603 c4 -6 2 -13 -5 -15 -13 -5 -2 -28 13 -28 11 0 7 36 -6 47
-4 5 -5 3 -2 -4z"/>
<path d="M440 590 c0 -5 5 -10 11 -10 5 0 7 5 4 10 -3 6 -8 10 -11 10 -2 0 -4
-4 -4 -10z"/>
<path d="M1860 590 c-9 -6 -10 -10 -3 -10 6 0 15 5 18 10 8 12 4 12 -15 0z"/>
<path d="M0 550 c0 -40 13 -53 24 -25 5 15 -9 65 -19 65 -3 0 -5 -18 -5 -40z"/>
<path d="M38 553 c5 -21 7 -23 10 -9 2 10 0 22 -6 28 -6 6 -7 0 -4 -19z"/>
<path d="M1627 550 c-4 -17 -2 -18 14 -9 22 11 25 29 5 29 -7 0 -16 -9 -19
-20z"/>
<path d="M1800 562 c0 -5 7 -13 16 -16 10 -4 14 -1 12 6 -5 15 -28 23 -28 10z"/>
<path d="M66 551 c-4 -7 -5 -15 -2 -18 9 -9 19 4 14 18 -4 11 -6 11 -12 0z"/>
<path d="M390 550 c0 -5 -8 -6 -17 -3 -16 6 -17 5 -3 -11 8 -11 16 -14 18 -7
2 6 10 11 18 11 9 0 12 5 9 10 -8 13 -25 13 -25 0z"/>
<path d="M1760 551 c0 -7 -4 -9 -10 -6 -5 3 -10 1 -10 -6 0 -8 -4 -8 -13 -1
-10 8 -13 6 -13 -7 0 -13 6 -16 24 -13 24 5 40 27 28 39 -3 4 -6 1 -6 -6z"/>
<path d="M1860 550 c20 -13 40 -13 40 0 0 6 -12 10 -27 10 -22 0 -25 -2 -13
-10z"/>
<path d="M450 535 c0 -8 4 -15 10 -15 5 0 7 7 4 15 -4 8 -8 15 -10 15 -2 0 -4
-7 -4 -15z"/>
<path d="M1526 534 c-4 -9 -4 -19 -1 -22 3 -3 5 0 5 7 0 7 6 11 13 8 8 -3 20
-1 28 4 9 5 9 9 2 9 -6 0 -18 3 -26 6 -8 3 -17 -2 -21 -12z"/>
<path d="M1685 542 c-10 -7 -19 -52 -10 -52 7 0 27 51 22 56 -1 2 -7 0 -12 -4z"/>
<path d="M226 524 c-4 -10 -1 -14 6 -12 15 5 23 28 10 28 -5 0 -13 -7 -16 -16z"/>
<path d="M1931 529 c-20 -8 -21 -11 -10 -25 11 -13 14 -13 17 -3 3 8 9 20 15
27 11 14 10 14 -22 1z"/>
<path d="M93 523 c-16 -6 -5 -33 13 -33 8 0 14 3 14 8 0 15 -15 29 -27 25z"/>
<path d="M284 519 c-4 -7 2 -10 17 -8 13 2 30 0 37 -4 7 -5 12 -3 12 7 0 19
-55 23 -66 5z"/>
<path d="M1840 520 c0 -5 -7 -10 -15 -10 -10 0 -15 -11 -15 -35 0 -19 -4 -35
-10 -35 -5 0 -10 -7 -10 -15 0 -8 5 -15 10 -15 6 0 10 -5 10 -11 0 -7 -10 -5
-25 5 -26 17 -29 14 -16 -19 5 -11 5 -27 0 -36 -9 -18 5 -47 15 -30 4 6 2 11
-5 11 -7 0 -5 6 6 13 10 8 16 18 13 23 -3 5 5 17 18 27 13 10 24 14 24 9 0 -5
11 -12 25 -14 13 -3 22 -1 19 3 -3 5 -12 9 -21 9 -11 0 -14 7 -11 25 6 29 2
31 -19 10 -21 -21 -22 -17 -13 30 4 22 8 37 9 32 0 -4 12 0 26 9 23 15 25 15
25 -1 0 -9 -9 -19 -20 -22 -11 -3 -20 -9 -20 -14 0 -5 7 -6 15 -3 9 4 15 0 15
-7 1 -8 7 1 15 20 8 18 12 37 9 42 -7 12 -54 11 -54 -1z"/>
<path d="M1475 510 c3 -5 8 -10 11 -10 2 0 4 5 4 10 0 6 -5 10 -11 10 -5 0 -7
-4 -4 -10z"/>
<path d="M1580 505 c-14 -17 -8 -28 15 -31 10 -1 15 6 15 22 0 27 -12 31 -30
9z"/>
<path d="M23 491 c-8 -13 -8 -22 -1 -29 6 -6 6 -12 -3 -17 -8 -5 -10 -4 -5 3
4 7 2 12 -4 12 -5 0 -9 -13 -8 -30 4 -51 31 -31 42 32 7 41 -4 56 -21 29z"/>
<path d="M203 498 c4 -11 0 -21 -11 -27 -9 -5 -15 -12 -12 -14 3 -3 15 3 27
13 21 16 21 19 6 31 -15 12 -16 12 -10 -3z"/>
<path d="M372 498 c6 -19 55 -44 65 -34 4 5 2 11 -5 13 -7 3 -19 11 -26 19
-18 17 -39 18 -34 2z"/>
<path d="M1725 483 c-17 -25 -17 -26 0 -19 12 4 16 2 12 -8 -4 -10 -1 -13 9
-9 15 6 20 63 5 63 -5 0 -17 -12 -26 -27z"/>
<path d="M1780 495 c0 -8 4 -15 10 -15 5 0 7 7 4 15 -4 8 -8 15 -10 15 -2 0
-4 -7 -4 -15z"/>
<path d="M1960 500 c0 -5 5 -10 10 -10 6 0 10 5 10 10 0 6 -4 10 -10 10 -5 0
-10 -4 -10 -10z"/>
<path d="M469 481 c11 -7 11 -9 0 -14 -10 -4 -9 -6 4 -6 9 -1 17 6 17 14 0 8
-8 15 -17 15 -14 0 -15 -2 -4 -9z"/>
<path d="M75 451 c0 -34 21 -31 28 5 3 17 0 24 -12 24 -11 0 -16 -9 -16 -29z"/>
<path d="M135 470 c-17 -7 -17 -9 -2 -9 9 -1 20 -1 24 -2 4 0 9 4 11 10 4 13
-5 13 -33 1z"/>
<path d="M199 441 c-44 -43 -43 -61 2 -78 17 -7 33 -21 36 -33 8 -29 38 -21
38 10 1 34 -40 62 -80 54 -23 -4 -26 -3 -15 5 22 16 59 13 77 -4 8 -9 17 -14
19 -12 8 8 -8 37 -20 37 -7 0 -11 12 -10 30 1 17 0 30 -3 30 -3 0 -23 -18 -44
-39z"/>
<path d="M260 470 c0 -5 8 -6 18 -3 15 6 15 5 4 -10 -12 -14 -11 -20 2 -39 9
-12 16 -32 17 -43 0 -20 0 -20 8 0 5 11 4 22 0 23 -5 2 -7 8 -3 13 3 5 0 9 -5
9 -6 0 -11 4 -11 8 0 5 10 8 23 8 16 -1 23 5 25 22 2 12 -2 22 -8 22 -6 0 -8
-4 -5 -10 3 -5 1 -10 -4 -10 -6 0 -11 5 -11 10 0 6 -11 10 -25 10 -14 0 -25
-4 -25 -10z"/>
<path d="M1486 464 c-5 -14 -4 -15 9 -4 17 14 19 20 6 20 -5 0 -12 -7 -15 -16z"/>
<path d="M1620 471 c0 -6 4 -13 10 -16 6 -3 7 1 4 9 -7 18 -14 21 -14 7z"/>
<path d="M1672 468 c-19 -19 -14 -29 8 -16 20 13 27 28 12 28 -4 0 -13 -5 -20
-12z"/>
<path d="M1959 453 c-2 -39 -4 -44 -16 -51 -7 -4 -13 -22 -15 -39 -1 -23 -6
-29 -18 -25 -13 5 -13 3 -1 -11 8 -10 9 -17 3 -17 -6 0 -14 9 -17 21 -4 11 -9
18 -12 15 -4 -3 -11 1 -17 10 -15 19 -50 8 -41 -14 7 -18 -51 -76 -66 -67 -5
4 -9 1 -9 -4 0 -12 14 -14 48 -5 12 4 22 14 22 25 0 10 5 21 10 24 15 9 11
-27 -5 -49 -14 -19 -12 -36 6 -36 5 0 9 12 9 26 0 24 3 26 30 21 17 -4 30 -3
30 1 0 10 48 8 57 -3 5 -4 2 -5 -4 -1 -18 10 -16 -14 2 -38 8 -11 15 -29 14
-40 0 -15 -4 -12 -12 11 -11 31 -35 43 -29 15 2 -8 -1 -19 -6 -25 -5 -7 -10
-34 -10 -62 0 -27 -5 -51 -11 -53 -6 -2 -9 -8 -5 -13 3 -5 1 -9 -5 -9 -16 0
-22 18 -9 23 10 4 9 8 -2 16 -24 17 -39 13 -46 -14 -8 -33 1 -56 21 -49 9 4
15 1 15 -9 0 -10 -8 -14 -25 -12 -14 1 -25 -2 -25 -6 0 -5 23 -9 51 -9 45 0
50 2 39 15 -10 12 -10 15 4 15 9 0 16 -6 16 -13 0 -9 13 -14 36 -15 31 -1 34
1 24 13 -10 12 -10 18 0 30 9 11 9 19 2 28 -7 8 -7 18 -2 27 16 25 12 42 -8
36 -13 -4 -18 -1 -18 14 0 12 7 20 18 20 13 0 17 9 16 40 0 23 -5 40 -12 40
-6 0 -4 5 4 10 9 6 11 13 5 18 -11 8 -13 42 -3 57 3 6 -1 21 -11 34 -20 26
-17 80 5 88 21 8 17 22 -6 20 -13 -1 -20 -9 -21 -24z m7 -103 c-1 -33 -12 -41
-18 -12 -3 13 8 39 18 42 1 0 1 -13 0 -30z m-93 -40 c-3 -11 -9 -20 -14 -20
-10 0 -12 24 -2 33 13 13 21 7 16 -13z"/>
<path d="M363 463 c-16 -6 -17 -33 -3 -33 11 0 26 28 19 34 -2 2 -10 1 -16 -1z"/>
<path d="M918 443 c-34 -14 -53 -43 -28 -43 6 0 10 4 10 10 0 5 19 18 43 29
49 24 29 26 -25 4z"/>
<path d="M1553 441 c2 -11 0 -22 -7 -25 -6 -3 2 -2 18 1 20 4 27 3 22 -6 -4
-6 -1 -11 6 -11 9 0 9 -3 -2 -10 -13 -9 -13 -10 0 -10 13 0 13 -1 0 -10 -12
-8 -12 -10 2 -15 10 -4 22 -4 28 0 5 3 10 1 10 -4 0 -10 -21 -16 -42 -12 -4 0
-4 -7 -1 -16 4 -11 8 -13 11 -5 3 10 7 10 18 1 24 -20 36 2 22 39 -7 18 -16
32 -21 32 -4 0 -5 4 -2 10 3 5 17 -2 30 -18 14 -15 25 -22 25 -16 0 5 -13 23
-30 39 -16 16 -30 23 -30 16 0 -9 -3 -9 -14 1 -8 7 -13 17 -13 22 1 6 -7 12
-17 14 -15 3 -18 0 -13 -17z"/>
<path d="M1695 440 c3 -5 11 -10 16 -10 6 0 7 5 4 10 -3 6 -11 10 -16 10 -6 0
-7 -4 -4 -10z"/>
<path d="M1888 444 c-10 -21 -2 -39 17 -36 28 5 36 15 24 32 -9 13 -10 12 -5
-2 7 -23 -3 -23 -19 -1 -7 9 -14 12 -17 7z"/>
<path d="M1988 420 c2 -16 6 -30 8 -30 2 0 4 14 4 30 0 17 -4 30 -8 30 -5 0
-7 -13 -4 -30z"/>
<path d="M395 428 c-30 -17 -30 -17 -9 -36 25 -23 49 -15 49 17 0 29 -12 35
-40 19z m15 -18 c0 -5 -4 -10 -10 -10 -5 0 -10 5 -10 10 0 6 5 10 10 10 6 0
10 -4 10 -10z"/>
<path d="M562 425 c-17 -19 -1 -19 24 0 14 11 15 14 4 14 -8 0 -21 -6 -28 -14z"/>
<path d="M1301 413 c-24 -23 -24 -23 -3 -23 14 0 22 6 22 16 0 10 6 14 15 10
8 -3 15 -1 15 3 0 19 -26 16 -49 -6z"/>
<path d="M450 415 c0 -8 5 -15 10 -15 6 0 10 7 10 15 0 8 -4 15 -10 15 -5 0
-10 -7 -10 -15z"/>
<path d="M1450 421 c0 -8 -7 -10 -20 -6 -11 3 -20 2 -20 -3 0 -13 49 -22 56
-10 4 5 1 15 -5 21 -8 8 -11 8 -11 -2z"/>
<path d="M1675 420 c-8 -13 3 -50 15 -50 5 0 6 7 3 17 -5 11 -3 14 6 8 10 -6
11 -3 2 14 -13 24 -17 25 -26 11z"/>
<path d="M100 405 c-20 -24 -6 -27 20 -5 17 15 19 20 8 20 -9 0 -21 -7 -28
-15z"/>
<path d="M950 405 c0 -8 7 -15 16 -15 14 0 14 3 4 15 -7 8 -14 15 -16 15 -2 0
-4 -7 -4 -15z"/>
<path d="M1234 408 c-7 -11 2 -21 19 -24 7 -1 14 6 14 16 2 17 -24 23 -33 8z"/>
<path d="M1490 412 c0 -5 7 -15 15 -22 8 -7 15 -8 15 -2 0 5 -7 15 -15 22 -8
7 -15 8 -15 2z"/>
<path d="M685 400 c-3 -5 -1 -10 4 -10 6 0 11 5 11 10 0 6 -2 10 -4 10 -3 0
-8 -4 -11 -10z"/>
<path d="M550 392 c0 -5 7 -13 16 -16 10 -4 14 -1 12 6 -5 15 -28 23 -28 10z"/>
<path d="M633 387 c0 -7 7 -19 16 -27 13 -13 14 -12 8 4 -4 10 -7 22 -7 27 0
5 -4 9 -8 9 -5 0 -9 -6 -9 -13z"/>
<path d="M1743 376 c0 -17 4 -23 14 -19 11 4 11 8 1 22 -7 9 -13 17 -14 19 -1
2 -1 -8 -1 -22z"/>
<path d="M17 367 c-8 -12 -14 -36 -14 -52 0 -17 2 -24 4 -17 6 15 23 6 23 -13
0 -8 -6 -12 -13 -9 -16 6 -20 -33 -5 -42 7 -5 9 -2 6 7 -2 8 4 22 14 32 15 14
18 14 18 2 0 -8 5 -15 10 -15 6 0 10 -5 10 -11 0 -8 -4 -8 -14 0 -11 9 -15 6
-18 -14 -5 -25 5 -34 17 -15 3 6 20 10 37 10 26 0 28 2 18 15 -6 8 -9 18 -6
24 3 5 -1 11 -9 15 -8 3 -15 13 -15 23 0 15 2 16 10 3 8 -13 10 -13 10 1 0 23
-11 30 -27 18 -10 -9 -13 -8 -13 4 0 10 -6 13 -20 10 -11 -3 -20 0 -20 6 0 6
9 11 20 11 12 0 20 7 20 16 0 14 -2 15 -17 3 -11 -10 -14 -10 -9 -1 13 22 -1
13 -17 -11z"/>
<path d="M1350 374 c-19 -8 -36 -17 -38 -19 -3 -3 11 -22 31 -44 20 -22 39
-36 42 -32 2 5 -2 11 -10 15 -17 6 -21 76 -5 76 6 0 10 -8 10 -17 0 -16 1 -16
16 -1 9 9 13 21 10 27 -9 14 -13 14 -56 -5z"/>
<path d="M1470 356 c0 -19 5 -38 12 -42 7 -5 8 -3 4 5 -5 7 -1 20 9 31 16 17
15 19 -4 30 -19 10 -21 8 -21 -24z"/>
<path d="M100 370 c-11 -7 -12 -12 -4 -17 6 -5 15 -23 19 -41 6 -31 8 -32 21
-15 12 16 13 16 14 2 0 -13 19 -29 34 -29 1 0 1 13 -2 30 -2 16 -7 28 -11 28
-16 -5 -50 23 -45 37 7 17 -4 19 -26 5z"/>
<path d="M339 379 c-6 -36 -6 -59 2 -59 5 0 9 -9 9 -20 0 -11 5 -20 11 -20 6
0 9 9 6 20 -7 26 10 26 18 0 8 -26 25 -16 25 15 0 28 -17 42 -33 26 -16 -16
-32 -14 -18 3 9 10 8 16 -4 26 -8 7 -15 11 -16 9z"/>
<path d="M457 366 c-4 -10 -5 -21 -2 -24 9 -9 17 6 13 25 -3 17 -4 17 -11 -1z"/>
<path d="M818 373 c7 -3 16 -2 19 1 4 3 -2 6 -13 5 -11 0 -14 -3 -6 -6z"/>
<path d="M543 349 c-2 -21 -1 -22 21 -13 21 8 20 21 -2 26 -12 4 -18 -1 -19
-13z"/>
<path d="M1533 351 c3 -11 1 -24 -5 -27 -6 -4 -6 -9 2 -14 7 -5 14 -25 15 -45
2 -31 10 -43 44 -70 26 -21 37 -35 29 -38 -8 -4 -7 -6 4 -6 9 -1 20 8 23 19 3
11 11 20 16 20 6 0 6 -7 0 -19 -9 -17 -8 -18 12 -13 19 5 20 3 9 -10 -15 -19
-2 -31 22 -22 27 11 21 -53 -6 -66 -22 -10 -22 -10 -4 4 30 24 14 35 -24 15
-19 -11 -29 -19 -22 -19 6 0 12 -4 12 -10 0 -16 -17 -11 -24 7 -4 9 -1 20 5
24 6 4 8 12 5 18 -4 6 -2 11 5 11 7 0 9 3 5 7 -4 4 -16 -3 -27 -17 -16 -21
-18 -22 -13 -5 5 19 5 19 -9 2 -8 -9 -20 -17 -28 -17 -8 -1 -32 -10 -54 -21
l-40 -20 55 3 c50 3 55 1 58 -19 3 -19 10 -23 42 -23 34 0 38 2 34 23 l-5 22
11 -23 c9 -20 16 -23 59 -20 47 3 49 4 38 23 -14 22 -11 69 4 60 5 -4 9 -1 9
4 0 6 -9 11 -19 11 -14 0 -18 5 -14 20 7 28 16 25 37 -11 23 -38 23 -38 35 31
1 3 5 0 9 -5 4 -6 19 -16 35 -22 27 -12 27 -12 27 23 0 19 -4 33 -8 30 -5 -3
-9 1 -9 9 0 8 4 15 9 15 15 0 8 19 -9 23 -11 3 -7 5 10 6 24 1 26 3 16 19 -8
12 -20 17 -35 14 -23 -4 -38 -27 -28 -43 7 -12 -3 -11 -28 2 -18 10 -20 9 -14
-7 4 -11 8 -23 9 -29 1 -5 7 -13 12 -17 6 -4 2 -8 -7 -8 -10 0 -18 -5 -18 -12
0 -9 -3 -9 -12 1 -11 10 -10 15 4 25 16 11 16 15 2 34 -15 22 -64 31 -64 11 0
-5 -4 -8 -9 -4 -5 3 -12 1 -16 -5 -7 -12 -26 -14 -22 -2 3 12 -36 82 -46 82
-5 0 -6 -8 -2 -17 4 -10 9 -24 13 -32 4 -11 0 -13 -16 -9 -12 4 -22 2 -22 -3
0 -5 12 -9 26 -9 23 0 24 -2 10 -15 -19 -20 -21 -19 -57 12 -22 20 -29 34 -26
50 2 13 0 23 -5 23 -5 0 -8 19 -6 41 2 29 -1 43 -11 47 -10 3 -12 -1 -8 -17z
m237 -151 c-20 -13 -33 -13 -25 0 3 6 14 10 23 10 15 0 15 -2 2 -10z m-34 -27
c-7 -7 -26 7 -26 19 0 6 6 6 15 -2 9 -7 13 -15 11 -17z"/>
<path d="M505 344 c9 -9 18 -14 21 -11 9 9 -6 27 -22 27 -13 0 -13 -2 1 -16z"/>
<path d="M590 351 c0 -6 6 -11 13 -11 8 0 7 -4 -3 -10 -9 -6 -10 -10 -3 -10
19 0 24 17 8 30 -10 9 -15 9 -15 1z"/>
<path d="M959 347 c18 -18 13 -36 -9 -30 -15 4 -20 1 -19 -13 0 -12 3 -14 6
-6 4 10 8 10 19 1 18 -14 20 -12 27 26 5 26 2 31 -15 32 -16 2 -18 -1 -9 -10z"/>
<path d="M1245 350 c3 -5 10 -10 16 -10 5 0 9 5 9 10 0 6 -7 10 -16 10 -8 0
-12 -4 -9 -10z"/>
<path d="M1684 311 c2 -31 0 -51 -7 -51 -5 0 1 -9 14 -21 13 -11 25 -16 27
-11 2 6 13 8 25 5 21 -5 21 -5 3 9 -11 8 -20 25 -21 37 -1 11 -10 28 -21 37
-10 8 -13 13 -6 9 17 -9 15 10 -2 25 -13 10 -14 4 -12 -39z"/>
<path d="M1010 341 c0 -5 5 -13 10 -16 6 -3 10 -2 10 4 0 5 -4 13 -10 16 -5 3
-10 2 -10 -4z"/>
<path d="M1426 325 c-4 -15 -5 -30 -1 -33 3 -3 5 3 5 14 1 18 1 18 11 2 10
-18 29 -25 29 -10 0 4 -9 18 -19 31 l-18 24 -7 -28z"/>
<path d="M205 330 c-3 -5 -1 -10 4 -10 6 0 11 5 11 10 0 6 -2 10 -4 10 -3 0
-8 -4 -11 -10z"/>
<path d="M295 307 c1 -17 7 -33 14 -35 6 -2 8 -9 5 -14 -4 -7 -2 -8 4 -4 7 4
12 3 12 -3 0 -5 -5 -13 -10 -16 -8 -5 -7 -11 0 -20 7 -8 9 -19 6 -24 -4 -5 -2
-12 4 -16 5 -3 10 -2 10 3 0 5 9 12 21 15 13 4 19 10 14 19 -3 7 1 4 9 -6 19
-23 20 -20 5 22 -6 18 -15 29 -20 26 -5 -3 -7 -10 -4 -15 4 -5 1 -9 -5 -9 -6
0 -8 -4 -5 -10 3 -5 0 -8 -7 -5 -7 3 -14 15 -15 28 -4 49 -9 64 -24 80 -15 15
-16 14 -14 -16z"/>
<path d="M420 331 c0 -6 4 -11 10 -11 5 0 7 -7 4 -15 -4 -9 -1 -15 7 -15 19 0
48 -30 43 -45 -9 -22 11 -25 24 -4 10 16 9 19 -4 19 -10 0 -14 6 -11 14 3 8
-2 23 -11 34 -20 23 -62 38 -62 23z"/>
<path d="M681 329 c-1 -9 6 -23 15 -30 9 -7 20 -22 24 -34 7 -17 9 -17 9 -2 1
9 7 17 14 17 6 0 1 10 -13 21 l-25 20 25 -6 c22 -5 23 -4 7 5 -10 7 -24 9 -32
6 -8 -3 -16 0 -19 7 -2 7 -5 5 -5 -4z"/>
<path d="M825 319 c-4 -12 -2 -26 5 -33 8 -8 10 -7 4 7 -4 12 0 23 12 32 17
13 17 14 2 15 -9 0 -20 -9 -23 -21z"/>
<path d="M1133 325 c-3 -9 -3 -19 1 -22 3 -4 6 -1 6 5 0 7 7 12 16 12 8 0 12
5 9 10 -9 15 -25 12 -32 -5z"/>
<path d="M755 266 c-16 -34 -31 -64 -33 -68 -2 -5 4 -8 13 -8 10 0 13 -5 9
-12 -5 -8 -2 -9 10 -5 10 4 20 7 22 7 2 0 4 5 4 10 0 6 -5 9 -11 8 -6 -2 -14
3 -17 11 -2 8 0 11 5 8 6 -4 8 3 6 18 -4 20 -2 23 18 19 22 -5 22 -4 7 8 -11
10 -14 19 -7 29 5 8 9 10 9 4 0 -5 5 -3 10 5 13 20 12 27 -2 26 -7 0 -26 -27
-43 -60z"/>
<path d="M1050 309 c0 -11 4 -18 10 -14 5 3 7 12 3 20 -7 21 -13 19 -13 -6z"/>
<path d="M1180 319 c0 -7 3 -9 7 -6 3 4 12 -1 20 -11 13 -16 14 -16 11 3 -3
21 -38 34 -38 14z"/>
<path d="M1075 310 c4 -6 1 -17 -5 -25 -10 -12 -9 -15 3 -15 9 0 18 4 21 9 8
12 -4 41 -16 41 -5 0 -6 -5 -3 -10z"/>
<path d="M1247 314 c-15 -15 -6 -24 23 -24 17 0 30 5 30 10 0 6 -4 10 -9 10
-5 0 -16 2 -23 5 -8 3 -17 2 -21 -1z"/>
<path d="M1395 296 c21 -32 27 -33 16 -4 -4 12 -14 24 -20 26 -8 3 -7 -5 4
-22z"/>
<path d="M520 286 c0 -8 5 -18 10 -21 6 -3 10 1 10 9 0 8 -4 18 -10 21 -5 3
-10 -1 -10 -9z"/>
<path d="M1150 286 c0 -9 7 -19 15 -22 8 -4 15 -11 15 -16 0 -6 -6 -8 -13 -5
-25 10 -20 -59 7 -90 18 -19 25 -23 26 -12 0 8 -5 20 -12 27 -9 9 -9 12 0 12
7 0 12 -4 12 -10 0 -5 7 -10 15 -10 8 0 15 -4 15 -10 0 -5 7 -7 15 -4 17 7 21
34 5 34 -5 0 -10 -5 -10 -11 0 -8 -5 -8 -15 1 -8 7 -12 16 -9 22 3 5 0 16 -8
25 -10 13 -10 17 0 20 18 7 15 33 -5 33 -9 0 -25 7 -35 17 -17 15 -18 15 -18
-1z"/>
<path d="M234 279 c-7 -12 21 -23 36 -14 5 3 10 2 10 -4 0 -5 -6 -12 -12 -14
-8 -4 -7 -6 3 -6 23 -1 31 26 11 35 -28 12 -42 13 -48 3z"/>
<path d="M560 282 c0 -5 9 -12 21 -15 13 -3 19 -1 16 6 -5 15 -37 22 -37 9z"/>
<path d="M665 279 c-4 -6 -5 -12 -2 -15 2 -3 7 2 10 11 7 17 1 20 -8 4z"/>
<path d="M1309 273 c-11 -13 -11 -17 -1 -20 6 -3 10 -8 7 -13 -3 -4 4 -6 15
-3 23 6 26 26 6 42 -10 9 -17 7 -27 -6z"/>
<path d="M406 264 c-3 -9 -6 -20 -6 -25 0 -13 28 -11 32 3 3 9 6 9 12 0 4 -7
3 -12 -3 -12 -6 0 -8 -7 -4 -16 3 -9 0 -20 -8 -26 -10 -6 -7 -7 11 -3 20 6 23
5 13 -6 -21 -21 -15 -34 7 -14 11 10 20 13 20 7 0 -6 -3 -13 -7 -15 -14 -9 -9
-80 6 -85 10 -3 12 0 8 11 -9 24 7 29 23 7 8 -10 18 -17 22 -14 5 3 4 12 -2
19 -7 9 -6 16 4 24 18 15 10 42 -10 34 -8 -3 -14 -2 -13 3 4 26 -4 42 -27 52
-14 7 -23 16 -19 21 3 5 1 12 -5 16 -6 4 -8 10 -5 15 3 4 -5 6 -17 2 -14 -3
-19 -2 -14 6 4 7 3 12 -2 12 -6 0 -13 -7 -16 -16z"/>
<path d="M1236 271 c-4 -5 3 -7 14 -4 23 6 26 13 6 13 -8 0 -17 -4 -20 -9z"/>
<path d="M1459 278 c0 -2 -2 -10 -4 -18 -2 -8 -6 -22 -10 -31 -3 -10 -1 -20 6
-25 8 -5 10 -3 4 6 -5 9 -1 11 16 6 13 -3 19 -3 12 0 -8 3 -10 16 -6 35 3 18
1 29 -6 29 -6 0 -11 -1 -12 -2z"/>
<path d="M1588 255 c-5 -25 -4 -25 10 -11 12 11 13 19 5 27 -7 7 -12 3 -15
-16z"/>
<path d="M688 252 c-4 -12 -2 -20 3 -16 5 3 9 0 9 -7 0 -7 2 -10 5 -7 3 3 2
16 -3 28 l-9 24 -5 -22z"/>
<path d="M990 260 c0 -5 5 -10 10 -10 6 0 10 5 10 10 0 6 -4 10 -10 10 -5 0
-10 -4 -10 -10z"/>
<path d="M1042 239 c3 -16 1 -29 -3 -29 -4 0 -10 -8 -14 -17 -5 -15 -4 -16 6
-5 18 17 25 15 26 -7 1 -11 -6 -22 -15 -24 -15 -4 -15 -5 1 -6 10 0 15 -5 12
-11 -3 -5 -1 -10 5 -10 7 0 10 6 7 14 -3 7 0 19 6 25 6 6 7 11 3 11 -5 0 -2 8
5 17 12 15 12 16 -3 11 -9 -4 -19 -1 -22 7 -4 10 3 13 25 10 16 -2 29 0 29 5
0 15 -18 21 -23 8 -4 -8 -6 -7 -6 3 -1 9 -10 19 -22 22 -19 5 -21 2 -17 -24z"/>
<path d="M1110 266 c0 -2 7 -9 15 -16 9 -7 15 -8 15 -2 0 5 -7 12 -15 16 -8 3
-15 4 -15 2z"/>
<path d="M1517 251 c-4 -17 -3 -21 5 -13 5 5 8 16 6 23 -3 8 -7 3 -11 -10z"/>
<path d="M565 250 c3 -5 8 -10 11 -10 2 0 4 5 4 10 0 6 -5 10 -11 10 -5 0 -7
-4 -4 -10z"/>
<path d="M1377 253 c-4 -3 -7 -13 -7 -22 0 -13 2 -13 9 -3 6 10 10 8 14 -8 3
-12 10 -19 16 -15 7 3 8 0 5 -9 -3 -9 -1 -16 5 -16 14 0 15 27 1 35 -5 3 -10
15 -10 26 0 18 -20 26 -33 12z"/>
<path d="M169 248 c-1 -2 -2 -14 -3 -29 -1 -18 3 -25 17 -26 13 -1 17 3 13 14
-4 8 -1 22 5 29 9 11 7 14 -10 14 -11 0 -22 -1 -22 -2z"/>
<path d="M603 238 c2 -7 10 -12 16 -10 10 2 15 -11 12 -31 -1 -5 3 -6 9 -2 18
11 4 50 -20 53 -15 3 -21 -1 -17 -10z"/>
<path d="M220 236 c0 -13 28 -54 33 -49 6 6 7 2 7 -24 0 -5 -8 -9 -18 -9 -9
-1 -32 -5 -50 -9 -30 -7 -33 -11 -27 -34 8 -33 39 -66 55 -56 6 4 15 18 20 31
5 13 14 24 20 24 16 0 12 -15 -10 -35 -15 -14 -17 -21 -9 -32 16 -18 32 -16
25 3 -5 14 -4 15 9 4 14 -12 14 -15 -1 -31 -16 -18 -16 -19 3 -19 16 0 20 6
18 25 -2 16 2 25 11 25 8 0 14 -10 14 -25 0 -16 6 -25 16 -25 21 0 16 71 -6
78 -13 5 -13 3 0 -13 14 -17 14 -17 -6 -5 -19 11 -20 17 -11 37 8 19 7 26 -9
38 -18 13 -18 14 4 8 12 -3 22 -12 22 -20 0 -8 5 -11 10 -8 6 4 2 18 -10 36
-12 16 -19 33 -16 37 3 5 -5 14 -17 20 -29 15 -77 32 -77 28z"/>
<path d="M542 228 c3 -7 20 -19 39 -26 28 -10 30 -12 7 -9 -32 5 -41 -11 -20
-35 10 -13 11 -18 3 -18 -7 0 -9 -5 -6 -10 4 -6 11 -8 16 -5 12 8 11 -6 -1
-25 -5 -8 -5 -17 -1 -20 5 -3 6 -20 4 -38 -5 -28 -7 -31 -21 -20 -10 8 -13 9
-9 1 4 -6 1 -13 -5 -16 -7 -3 85 -5 204 -5 195 -1 217 1 221 16 4 15 5 15 6 1
1 -15 27 -17 242 -18 171 0 238 2 233 10 -4 8 0 8 14 0 42 -22 150 0 112 24
-10 6 -40 -4 -40 -14 0 -3 -13 -6 -29 -6 -16 0 -27 3 -25 7 9 15 -10 38 -31
38 -16 0 -27 9 -37 30 -7 16 -16 30 -19 30 -10 0 -19 -58 -12 -77 4 -13 1 -12
-11 4 -9 12 -15 28 -14 35 2 7 -3 12 -9 11 -7 -2 -13 2 -13 8 0 6 7 9 15 5 9
-3 15 0 15 9 0 21 -27 19 -39 -3 -6 -9 -11 -12 -11 -6 0 7 -12 19 -26 29 -24
16 -27 16 -45 -1 -10 -9 -19 -23 -19 -31 0 -7 -9 -13 -21 -13 -15 0 -19 5 -15
16 3 8 2 12 -3 9 -5 -3 -13 0 -18 7 -5 9 -9 3 -13 -17 -4 -18 0 -39 8 -52 16
-26 2 -32 -18 -8 -7 8 -19 15 -26 15 -8 0 -14 6 -14 14 0 9 7 12 18 9 13 -3
18 2 20 21 1 14 -3 26 -9 26 -8 0 -8 4 0 13 8 11 5 14 -19 14 -30 0 -39 -14
-20 -33 17 -17 0 -45 -24 -42 -16 2 -20 -2 -18 -16 3 -15 1 -16 -10 -5 -8 7
-15 22 -16 33 -1 17 1 18 8 6 11 -17 13 0 4 24 -10 26 -24 18 -24 -13 0 -20
-8 -34 -27 -46 -16 -10 -22 -12 -15 -4 14 15 16 49 3 49 -6 0 -13 -5 -17 -12
-4 -7 -3 -8 4 -4 7 4 12 2 12 -4 0 -7 -6 -10 -12 -7 -7 2 -12 14 -10 27 2 19
0 21 -13 10 -8 -7 -12 -16 -9 -21 3 -5 0 -9 -6 -9 -8 0 -10 9 -6 24 4 18 2 23
-12 22 -13 -1 -17 6 -16 32 1 17 -2 32 -7 32 -5 0 -9 -7 -9 -15 0 -8 -4 -15
-9 -15 -4 0 -6 -11 -3 -25 2 -14 8 -22 13 -19 5 3 9 0 9 -5 0 -6 8 -19 19 -30
16 -16 17 -21 5 -42 l-13 -24 -2 30 -1 30 -7 -29 c-6 -31 -28 -47 -28 -21 0 8
4 15 9 15 5 0 6 5 3 11 -4 6 -13 8 -21 5 -7 -3 -16 -1 -19 5 -4 5 -11 7 -16 4
-5 -4 -10 4 -10 17 -1 17 -3 18 -6 5 -2 -9 -8 -17 -13 -17 -5 0 -16 -8 -26
-17 -17 -17 -17 -16 -11 15 4 18 2 32 -3 32 -6 0 -10 -7 -10 -15 0 -8 -4 -15
-10 -15 -13 0 -13 26 -1 49 13 23 0 43 -19 30 -13 -8 -13 -10 0 -18 17 -11 14
-16 -19 -26 -21 -6 -23 -5 -17 11 7 18 6 18 -10 2 -21 -21 -13 -45 18 -51 22
-4 22 -4 1 -6 -15 -1 -23 -8 -25 -27 -3 -24 -4 -24 -23 -10 -16 13 -17 15 -2
10 19 -7 22 6 8 34 -44 89 -44 91 -31 108 12 13 11 17 -1 25 -8 5 -20 7 -27 4
-7 -3 -15 2 -18 10 -7 18 -27 20 -22 3z m724 -145 c-7 -7 -26 7 -26 19 0 6 6
6 15 -2 9 -7 13 -15 11 -17z m-56 -7 c0 -11 -19 -15 -25 -6 -3 5 1 10 9 10 9
0 16 -2 16 -4z m210 -6 c0 -5 -4 -10 -9 -10 -6 0 -13 5 -16 10 -3 6 1 10 9 10
9 0 16 -4 16 -10z m-710 -20 c0 -5 -4 -10 -10 -10 -5 0 -10 5 -10 10 0 6 5 10
10 10 6 0 10 -4 10 -10z m417 -18 c-9 -2 -14 -8 -11 -14 4 -7 2 -8 -4 -4 -17
11 -3 36 16 28 16 -6 15 -7 -1 -10z m-192 -12 c-3 -5 -11 -10 -16 -10 -6 0 -7
5 -4 10 3 6 11 10 16 10 6 0 7 -4 4 -10z"/>
<path d="M905 219 c-15 -6 -11 -8 19 -8 22 -1 36 2 32 6 -10 10 -29 11 -51 2z"/>
<path d="M1127 223 c-4 -3 -7 -11 -7 -17 0 -6 5 -5 12 2 6 6 9 14 7 17 -3 3
-9 2 -12 -2z"/>
<path d="M510 216 c0 -2 8 -10 18 -17 15 -13 16 -12 3 4 -13 16 -21 21 -21 13z"/>
<path d="M822 200 c0 -14 2 -19 5 -12 2 6 2 18 0 25 -3 6 -5 1 -5 -13z"/>
<path d="M1258 213 c-28 -7 -21 -21 12 -28 17 -4 30 -13 30 -22 0 -8 6 -13 13
-10 6 2 23 0 36 -5 18 -6 22 -5 18 6 -3 7 0 13 6 12 7 0 12 4 12 9 0 11 -11
11 -39 -1 -14 -5 -17 -4 -12 4 4 7 1 12 -8 12 -10 0 -13 6 -10 15 4 8 1 15 -5
15 -6 0 -11 -7 -11 -15 0 -8 -5 -15 -11 -15 -5 0 -8 4 -4 9 7 12 -5 19 -27 14z"/>
<path d="M105 193 c-5 -11 -9 -14 -12 -6 -2 7 -11 9 -19 6 -16 -6 -19 -53 -3
-53 16 0 54 33 54 47 0 21 -12 24 -20 6z"/>
<path d="M206 184 c-8 -21 -8 -24 5 -24 5 0 7 5 4 10 -3 6 -1 10 4 10 6 0 11
5 11 10 0 16 -17 12 -24 -6z"/>
<path d="M850 190 c0 -5 5 -10 11 -10 5 0 7 5 4 10 -3 6 -8 10 -11 10 -2 0 -4
-4 -4 -10z"/>
<path d="M1085 191 c-3 -6 3 -15 14 -21 24 -12 42 7 20 21 -18 11 -26 11 -34
0z"/>
<path d="M1461 191 c-7 -5 -9 -11 -5 -14 5 -3 15 1 22 9 14 16 5 18 -17 5z"/>
<path d="M1503 165 c-9 -19 -21 -35 -27 -35 -6 0 -4 -5 4 -10 8 -5 10 -10 4
-10 -16 0 -25 -38 -10 -43 16 -6 56 14 56 28 0 20 27 39 33 23 2 -8 8 -9 13
-4 5 5 4 11 -3 13 -7 3 -13 11 -13 19 0 8 -5 14 -12 14 -6 0 -9 -3 -5 -6 7 -8
-17 -34 -32 -34 -6 0 -11 5 -11 11 0 5 5 7 10 4 6 -3 10 0 11 7 0 7 2 23 5 36
6 32 -4 27 -23 -13z"/>
<path d="M10 183 c5 -2 8 -8 5 -13 -3 -4 -7 -25 -10 -46 -3 -23 -1 -32 3 -21
4 10 11 18 15 18 20 -2 27 0 27 10 0 6 -9 8 -23 4 -15 -4 -18 -3 -9 3 17 11
12 44 -6 48 -7 1 -8 0 -2 -3z"/>
<path d="M647 175 c-4 -8 -2 -17 3 -20 6 -4 10 -4 10 -1 0 2 3 11 6 20 3 9 2
16 -4 16 -5 0 -12 -7 -15 -15z"/>
<path d="M390 170 c-9 -6 -10 -10 -3 -10 6 0 15 5 18 10 8 12 4 12 -15 0z"/>
<path d="M926 161 c-3 -5 1 -11 9 -14 9 -4 12 -1 8 9 -6 16 -10 17 -17 5z"/>
<path d="M1430 161 c0 -6 5 -13 10 -16 6 -3 10 1 10 9 0 9 -4 16 -10 16 -5 0
-10 -4 -10 -9z"/>
<path d="M355 150 c-4 -6 3 -10 14 -10 25 0 27 6 6 13 -8 4 -17 2 -20 -3z"/>
<path d="M821 151 c-7 -5 -11 -15 -9 -22 3 -10 8 -7 17 9 13 24 12 26 -8 13z"/>
<path d="M1410 151 c0 -5 6 -16 13 -23 8 -7 12 -19 9 -26 -2 -7 2 -10 12 -6
13 5 12 10 -6 35 -23 31 -28 34 -28 20z"/>
<path d="M107 143 c-3 -5 -4 -19 -3 -33 1 -18 6 -24 19 -22 11 2 15 -2 11 -13
-3 -8 -10 -15 -15 -15 -5 0 -9 -4 -9 -10 0 -16 32 -12 45 6 9 14 7 21 -12 40
-13 13 -22 28 -18 33 3 5 1 12 -4 15 -5 4 -12 3 -14 -1z"/>
<path d="M400 130 c0 -5 -3 -9 -7 -9 -27 4 -32 -4 -31 -53 1 -58 5 -71 19 -63
5 4 5 15 -2 28 -10 22 -10 22 10 0 22 -26 52 -34 32 -9 -10 12 -8 17 8 25 26
15 38 14 23 -1 -7 -7 -12 -17 -12 -22 0 -6 4 -5 9 3 5 7 14 10 20 7 6 -4 9
-12 6 -17 -4 -5 3 -9 13 -9 16 0 19 5 14 22 -3 14 -2 19 6 14 7 -4 12 -3 12 3
0 17 -22 24 -30 10 -12 -18 -40 6 -41 35 0 11 -3 15 -6 8 -4 -10 -8 -10 -19
-1 -11 9 -11 15 -3 25 9 11 8 14 -5 14 -9 0 -16 -4 -16 -10z m20 -65 c0 -5 -5
-3 -10 5 -5 8 -10 20 -10 25 0 6 5 3 10 -5 5 -8 10 -19 10 -25z"/>
<path d="M988 133 c7 -3 16 -2 19 1 4 3 -2 6 -13 5 -11 0 -14 -3 -6 -6z"/>
<path d="M55 116 c-5 -12 -3 -21 6 -27 8 -5 12 -9 9 -10 -3 0 -18 -2 -34 -4
-38 -5 -41 -9 -26 -45 12 -28 16 -30 56 -28 34 2 44 7 44 21 0 15 -22 23 -52
18 -5 0 -8 4 -8 10 0 7 10 9 25 7 17 -4 25 -1 25 8 0 8 -4 14 -8 14 -5 0 -13
12 -19 28 -9 24 -11 25 -18 8z m-5 -96 c0 -5 -4 -10 -10 -10 -5 0 -10 5 -10
10 0 6 5 10 10 10 6 0 10 -4 10 -10z"/>
<path d="M771 104 c0 -11 3 -14 6 -6 3 7 2 16 -1 19 -3 4 -6 -2 -5 -13z"/>
<path d="M830 105 c0 -16 27 -32 37 -21 7 7 -16 36 -28 36 -5 0 -9 -7 -9 -15z"/>
<path d="M1085 110 c3 -5 8 -10 11 -10 2 0 4 5 4 10 0 6 -5 10 -11 10 -5 0 -7
-4 -4 -10z"/>
<path d="M1540 100 c0 -5 5 -10 10 -10 6 0 10 5 10 10 0 6 -4 10 -10 10 -5 0
-10 -4 -10 -10z"/>
<path d="M1776 55 c-3 -9 0 -15 9 -15 16 0 20 16 6 24 -5 3 -11 -1 -15 -9z"/>
<path d="M170 46 c0 -8 -3 -21 -6 -30 -4 -10 -1 -16 9 -16 8 0 18 6 20 13 4 9
6 9 6 0 2 -22 31 -14 31 7 0 13 -7 20 -20 20 -11 0 -20 5 -20 10 0 6 -4 10
-10 10 -5 0 -10 -6 -10 -14z"/>
<path d="M120 19 c0 -5 5 -7 10 -4 6 3 10 8 10 11 0 2 -4 4 -10 4 -5 0 -10 -5
-10 -11z"/>
</g>
</svg>
